<svg width="155.06mm" height="23.162mm" version="1.1" viewBox="0 0 155.06 23.162" xml:space="preserve" xmlns="http://www.w3.org/2000/svg" xmlns:xlink="http://www.w3.org/1999/xlink"><g transform="matrix(.26458 0 0 .26458 111.5 -126.04)"><path transform="matrix(1.4965 0 0 1.4965 -391.35 302.52)" d="m72.971 154.94c0.86667 1.5253 2.1147 2.4613 3.952 2.4613 1.8027 0 3.3973-1.04 4.0213-3.1893l5.9973-20.384h-7.0027l-2.184 8.0773c-0.69333 2.5653-1.2133 4.5413-1.5947 6.3787-0.728-1.56-1.5253-3.1893-3.2587-6.3787l-3.0853-5.8587c-1.2133-2.288-2.4267-2.6-4.16-2.6-1.6987 0-2.8773 0.312-4.0907 2.6l-3.12 5.824c-1.5947 3.016-2.496 4.784-3.2587 6.4133-0.34667-1.872-0.832-3.7787-1.56-6.3787l-2.184-8.0773h-7.176l5.8933 20.384c0.624 2.1493 2.2187 3.1893 4.0213 3.1893 1.872 0 3.12-0.97067 3.952-2.4613l3.7093-6.5867c2.0107-3.5707 2.9467-5.2693 3.6747-6.9333 0.79734 1.664 1.7333 3.3973 3.744 6.968zm23.989-21.112h-7.176v23.192h7.176zm11.648 17.229v-17.229h-7.176v23.192h20.488l4.6453-5.9627zm49.851-5.8587c0-6.6907-5.8587-11.371-13.971-11.371h-10.955l-4.576 6.032h15.531c3.8827 0 6.864 2.392 6.864 5.6507 0 3.328-2.8773 5.5467-6.864 5.5467h-8.32v-8.4934h-7.2107v14.456h15.531c8.0427 0 13.971-5.096 13.971-11.821zm43.091-0.104c1.5947-0.58933 3.1547-2.1147 3.1547-4.8533 0-4.264-3.5707-6.4133-9.1173-6.4133h-15.357l-4.8533 6.032h20.523c1.0053 0 2.0107 0.34667 2.0107 1.4907 0 1.1787-0.97067 1.56-2.0107 1.56h-20.523v14.109h20.384c7.3147 0 9.4293-2.912 9.4293-6.76 0-2.7733-1.6293-4.576-3.64-5.1653zm-5.7547 2.7733c1.56 0 2.2187 0.55467 2.2187 1.56 0 1.0747-0.65867 1.6293-2.2187 1.6293h-13.208v-3.1893zm20.28-14.04h-7.176v23.192h7.176zm17.715 17.229c-3.9173 0-6.7947-2.2533-6.7947-5.5467 0-3.328 2.912-5.6507 6.7947-5.6507h11.648l4.6107-6.032h-16.259c-8.0427 0-13.971 4.576-13.971 11.371 0 6.7253 5.928 11.821 13.971 11.821h11.648l4.6107-5.9627zm42.952-17.229-5.2693 6.4133c-1.664 2.0107-2.4613 3.016-2.912 3.6747-0.48534-0.69334-2.4267-2.808-3.1547-3.64l-5.5467-6.448h-9.2213l14.144 15.496v7.696h7.2107v-7.6613l13.763-15.531zm21.597 17.229c-3.9173 0-6.7947-2.2533-6.7947-5.5467 0-3.328 2.912-5.6507 6.7947-5.6507h11.648l4.6107-6.032h-16.259c-8.0427 0-13.971 4.576-13.971 11.371 0 6.7253 5.928 11.821 13.971 11.821h11.648l4.6107-5.9627zm25.931 0v-17.229h-7.176v23.192h20.488l4.6453-5.9627zm27.56 0v-3.1547h14.248l4.1253-5.2693h-18.373v-2.7733h15.011l4.6453-6.032h-26.867v23.192h22.325l4.6107-5.9627zm-342.3 22.589c-0.97424-0.28497-3.0346-0.96977-4.3371-1.9903-0.058186-0.0463-0.12532-0.0836-0.19694-0.11041-0.093993-0.0418-0.19694-0.0597-0.30137-0.0582-0.10444-1e-3 -0.20738 0.0164-0.30137 0.0582-0.071614 0.0269-0.13875 0.0642-0.19694 0.11041-1.301 1.0205-3.3629 1.7053-4.3356 1.9903-0.29988 0.088-0.43267 0.34016-0.27004 0.55948 0.16113 0.22081 0.56694 0.42222 0.87727 0.45206 1.2756 0.11637 2.7392-0.47444 3.7179-0.69077 0 0 0.35061-0.11339 0.5013-0.11339 0.00298 0 0.00597 0 0.00746-1e-3 0.00298 1e-3 0.00597 1e-3 0.00746 1e-3 0.15069 0 0.5013 0.11339 0.5013 0.11339 0.97872 0.21633 2.4438 0.80714 3.7179 0.69077 0.31033-0.0298 0.71614-0.23125 0.87876-0.45206 0.16113-0.21932 0.028347-0.47146-0.27004-0.55948m18.214-23.999c-4.1879-1.1533-5.9738-2.1186-8.8771-4.0298-0.38791-0.25512-0.96828-0.19544-1.3323 0.091-1.9425 1.5233-5.0159 2.5423-6.4676 2.9675-0.44609 0.1298-0.64303 0.50726-0.40283 0.834 0.2417 0.32972 0.84594 0.6311 1.3099 0.67287 1.9007 0.17605 4.0835-0.0761 5.5441-0.40133 0.45504-0.10146 1.1264 3e-3 1.5367 0.2208 0.69823 0.37448 1.6024 0.7788 2.4737 1.1831 0.42073 0.19694 0.55351 0.67735 0.31778 1.0787-2.9302 4.9652-3.1749 10.06-3.2077 12.201-6e-3 0.4625-0.33121 1.0399-0.71017 1.3084-0.81311 0.57738-2.123 1.5979-3.1137 2.7407-0.30287 0.35359-0.8146 0.4267-1.1801 0.13875-2.3946-1.8784-4.4296-3.3091-6.1319-4.4132 1.5845-1.0981 2.8884-1.9664 3.6374-2.502 0.37746-0.27004 0.38045-0.67734-6e-3 -0.93247-0.93247-0.62065-2.5796-1.7381-3.6239-2.5676-0.36254-0.28944-0.76835-0.43714-0.90114-0.2775-0.13129 0.16262 0.025363 0.62065 0.31928 0.98021 0.26557 0.32226 0.60424 0.71315 0.95186 1.0578 0.32972 0.32674 0.30137 0.73106-0.11488 0.93694-0.69972 0.34763-1.7068 0.83997-3.051 1.6053-1.3428-0.76537-2.3513-1.2577-3.0495-1.6053-0.41775-0.20588-0.44609-0.6102-0.11637-0.93694 0.34762-0.34464 0.6863-0.73553 0.95186-1.0578 0.29391-0.35956 0.45206-0.81759 0.31928-0.98021-0.13278-0.15964-0.5371-0.0119-0.90114 0.2775-1.0429 0.82952-2.6915 1.947-3.6239 2.5676-0.38642 0.25513-0.38343 0.66243-0.00597 0.93247 0.74896 0.53561 2.0529 1.4039 3.6389 2.502-1.7038 1.104-3.7388 2.5348-6.1334 4.4132-0.36553 0.28795-0.87727 0.21484-1.1816-0.13875-0.98916-1.1428-2.2991-2.1633-3.1122-2.7407-0.37896-0.26855-0.70271-0.84594-0.71017-1.3084-0.032823-2.141-0.27899-7.236-3.2077-12.201-0.23573-0.40133-0.10294-0.88174 0.31778-1.0787 0.8713-0.40432 1.7754-0.80864 2.4737-1.1831 0.41029-0.21782 1.0817-0.32226 1.5352-0.2208 1.4621 0.32524 3.6448 0.57738 5.5471 0.40133 0.4625-0.0418 1.0667-0.34315 1.3084-0.67287 0.2402-0.32674 0.043267-0.7042-0.40283-0.834-1.4517-0.42521-4.5251-1.4442-6.4661-2.9675-0.36553-0.28645-0.9459-0.34613-1.3323-0.091-2.9048 1.9112-4.6907 2.8765-8.8786 4.0298-0.44758 0.12234-0.54456 0.48339-0.25363 0.84444 2.5139 3.1212 6.6496 10.16 4.5534 15.273-0.17605 0.43117 0 0.87876 0.42968 1.0548 1.759 0.71762 4.4475 2.4498 8.0953 7.2315 0.28198 0.37 0.7415 0.39089 1.0503 0.0448 2.4766-2.784 6.0126-5.5918 9.1546-7.8805 3.142 2.2886 6.678 5.0965 9.1546 7.8805 0.30883 0.34613 0.76835 0.32524 1.0503-0.0448 3.6478-4.7817 6.3363-6.5139 8.0953-7.2315 0.42968-0.17605 0.60573-0.62364 0.42968-1.0548-2.0962-5.1129 2.0395-12.152 4.5534-15.273 0.29093-0.36105 0.19395-0.7221-0.25363-0.84444m-3.5543-33.181c-0.28198-0.37-0.74299-0.39089-1.0518-0.0433-4.1983 4.7176-11.103 10.193-14.245 12.529-1.4278-0.45206-2.8451-0.74001-4.1387-0.74001-1.2905 0-2.7079 0.28198-4.1387 0.72509-3.151-2.3453-10.036-7.8089-14.226-12.514-0.31033-0.34762-0.77134-0.32673-1.0518 0.0433-3.6478 4.7817-7.2718 27.362-4.3684 29.274 0.3894 0.25662 0.96678 0.19694 1.3338-0.0895 1.941-1.5218 5.0144-2.5438 6.4661-2.9675 0.44609-0.1298 0.61468-0.48787 0.40134-0.83549-0.2775-0.45206-1.0608-0.42223-1.4338-0.42073-0.63856 3e-3 -2.2752 0.58932-3.0525-0.0388-0.35807-0.28646-0.53113-1.3189-0.63109-1.8918-0.86533-5.01 1.5889-15.815 2.314-16.655 0.30436-0.34911 0.8146-0.42371 1.1801-0.13577 6.2647 4.913 8.2341 6.4974 10.009 7.3941-3.2912 1.4576-6.214 3.3554-7.2912 4.1506-0.37299 0.27601-0.91755 0.21484-1.025-0.23573-0.22528-0.94739-0.34315-2.5647-0.39686-3.5494-0.02536-0.46549-0.24319-1.1592-0.49234-1.5501l-0.26855-0.41476c-0.25065-0.39089-0.51472-0.33718-0.58335 0.12234-0.27303 1.8709-1.0473 6.4691-0.26706 8.331 0.18202 0.43117 0.80565 0.62065 1.2353 0.67734 0.29242 0.0403 0.48936 0.0492 0.69226 0.0269 0.46996-0.0567 1.1279-0.0865 1.492-0.37448 1.7724-1.4144 4.9831-2.8959 8.4728-4.549 0.74896-0.32226 3.4703-1.4367 5.6023-1.4367 1.486 0 3.336 0.58036 4.5922 1.0503 3.8179 1.5904 7.4239 3.4031 9.3441 4.9354 0.36254 0.28795 1.0205 0.31779 1.4905 0.37448 0.2044 0.0224 0.39984 0.0134 0.69226-0.0269 0.43117-0.0567 1.0548-0.24617 1.2353-0.67734 0.78178-1.862 0.0075-6.4601-0.26706-8.331-0.06714-0.45952-0.33121-0.51323-0.58335-0.12234l-0.26706 0.41476c-0.25065 0.39089-0.46698 1.0846-0.49234 1.5501-0.05371 0.98469-0.17158 2.602-0.39686 3.5494-0.10891 0.45057-0.65198 0.51174-1.0265 0.23573-1.0697-0.78925-3.9164-2.6691-7.133-4.1238 1.7903-0.89219 3.7373-2.4587 10.063-7.421 0.36553-0.28794 0.87727-0.21334 1.1816 0.13577 0.72509 0.83997 3.1779 11.645 2.314 16.655-0.09996 0.57291-0.27452 1.6053-0.6311 1.8918-0.77731 0.62811-2.4155 0.0418-3.0525 0.0388-0.37299-1e-3 -1.1578-0.0313-1.4353 0.42073-0.21335 0.34762-0.04327 0.70569 0.40283 0.83549 1.4517 0.42371 4.5251 1.4457 6.4661 2.9675 0.36553 0.28645 0.9444 0.34613 1.3323 0.0895 2.9033-1.9112-0.72061-24.492-4.3669-29.274" style="fill:#2e5422;stroke-linecap:round;stroke-linejoin:round;stroke-width:.5;white-space:pre"/></g></svg>
