<?xml version="1.0" encoding="UTF-8" standalone="no"?>
<!-- Created with Inkscape (http://www.inkscape.org/) -->

<svg
   width="323mm"
   height="164mm"
   viewBox="0 0 323 164"
   version="1.1"
   id="svg1"
   xml:space="preserve"
   sodipodi:docname="bryton.svg"
   inkscape:version="1.4 (86a8ad7, 2024-10-11)"
   xmlns:inkscape="http://www.inkscape.org/namespaces/inkscape"
   xmlns:sodipodi="http://sodipodi.sourceforge.net/DTD/sodipodi-0.dtd"
   xmlns="http://www.w3.org/2000/svg"
   xmlns:svg="http://www.w3.org/2000/svg"><sodipodi:namedview
     id="namedview1"
     pagecolor="#ffffff"
     bordercolor="#000000"
     borderopacity="0.25"
     inkscape:showpageshadow="2"
     inkscape:pageopacity="0.0"
     inkscape:pagecheckerboard="0"
     inkscape:deskcolor="#d1d1d1"
     inkscape:document-units="mm"
     inkscape:zoom="0.25252538"
     inkscape:cx="756.35961"
     inkscape:cy="235.61988"
     inkscape:window-width="1366"
     inkscape:window-height="745"
     inkscape:window-x="-8"
     inkscape:window-y="678"
     inkscape:window-maximized="1"
     inkscape:current-layer="layer1"><inkscape:page
       x="0"
       y="0"
       width="323"
       height="164"
       id="page2"
       margin="0"
       bleed="0" /></sodipodi:namedview><defs
     id="defs1" /><g
     inkscape:label="Layer 1"
     inkscape:groupmode="layer"
     id="layer1"
     transform="translate(-6.6580307,-42.592655)"><path
       style="fill:#000000;stroke-width:0.877113"
       d="m 176.9251,163.82813 c -0.21273,-0.0859 -0.38678,-0.32901 -0.38678,-0.54039 0,-0.21137 1.46774,-3.78137 3.26166,-7.93333 l 3.26166,-7.549 -4.70036,-10.83854 c -2.58519,-5.96118 -5.70338,-13.13601 -6.92931,-15.94405 -2.70764,-6.20198 -3.12714,-7.34081 -2.81812,-7.65051 0.43207,-0.43304 5.8525,-0.44796 6.66,-0.0183 0.58448,0.31097 1.84213,2.91931 5.78641,12.00081 2.77178,6.38191 5.18758,12.01241 5.36842,12.51222 0.19737,0.54546 0.438,0.79286 0.60193,0.61885 0.15021,-0.15944 2.4629,-5.37221 5.1393,-11.58395 5.58428,-12.9607 5.82597,-13.47092 6.5045,-13.7313 0.64586,-0.24783 5.50799,-0.25182 6.15108,-0.005 0.2692,0.10331 0.48945,0.41283 0.48945,0.68784 0,0.275 -1.24115,3.35824 -2.75811,6.85162 -1.51697,3.49339 -5.08093,11.71242 -7.91992,18.26452 -9.32941,21.53128 -10.68504,24.57061 -11.0676,24.81367 -0.41129,0.26131 -6.01407,0.29919 -6.64421,0.0449 z M 34.040348,154.1461 C 24.85577,152.73132 17.131901,146.12389 14.197282,137.17122 l -0.881227,-2.68836 V 109.88348 85.284112 l 0.674666,-0.09605 c 0.563142,-0.08017 1.907836,1.55656 8.134902,9.901636 l 7.460235,9.997692 17.083325,0.16499 c 19.196922,0.1854 18.517002,0.11044 23.581269,2.60017 6.319488,3.10682 10.965153,8.70975 12.897811,15.55549 0.898725,3.18342 0.962746,9.09384 0.133356,12.31253 -1.275778,4.95102 -4.564409,10.10667 -8.386895,13.14831 -2.918288,2.32216 -7.43629,4.563 -7.958935,3.94748 -0.03614,-0.0425 -0.140558,-5.85589 -0.232067,-12.91854 -0.165897,-12.80344 -0.16859,-12.84567 -0.916101,-14.36446 -1.000865,-2.03358 -2.799675,-3.77593 -4.928885,-4.77418 l -1.747622,-0.81935 -10.245526,-0.0891 c -11.774123,-0.10235 -12.361885,-0.003 -15.251579,2.59577 -2.298528,2.06657 -3.279527,4.27861 -3.279527,7.39493 0,2.08053 0.137216,2.75481 0.860142,4.22693 0.989787,2.01553 2.594869,3.58235 4.93049,4.81294 l 1.635597,0.86176 8.716279,0.15472 c 4.79395,0.0851 8.784877,0.22433 8.86872,0.30943 0.641582,0.65111 9.799206,12.8235 9.799206,13.02517 0,0.94883 -1.474681,1.05401 -15.471305,1.10341 -7.743384,0.0274 -14.778359,-0.0581 -15.633263,-0.18972 z m 84.635292,-2.04054 c -2.68849,-0.57415 -6.63356,-2.60435 -8.78238,-4.51957 -2.31124,-2.05997 -4.38083,-5.01026 -5.56878,-7.9385 l -0.96544,-2.37979 v -18.56557 -18.56557 h 3.24897 3.24898 l 0.15471,6.34324 0.15472,6.34323 7.89036,0.1762 c 8.95629,0.2 10.31826,0.44143 14.37385,2.54784 4.69572,2.4389 8.70982,7.5563 9.9053,12.62784 0.60419,2.56309 0.60266,7.07773 -0.004,9.41455 -1.39896,5.39592 -5.43593,10.38383 -10.35178,12.79021 -4.30623,2.10796 -8.79177,2.6898 -13.30533,1.72589 z m 10.05086,-7.99762 c 2.63703,-1.3033 4.6229,-3.30896 5.94793,-6.00721 0.78779,-1.60423 0.86493,-2.06488 0.86493,-5.165 0,-3.05009 -0.0867,-3.58861 -0.83418,-5.18371 -1.78976,-3.8191 -5.61995,-6.67477 -9.84103,-7.33718 -2.83725,-0.44524 -14.13441,-0.4217 -14.41359,0.03 -0.2909,0.47068 -0.26487,13.79936 0.0296,15.14242 0.42862,1.95516 1.79893,4.38667 3.39138,6.01776 2.75264,2.81942 5.61886,3.9069 9.85108,3.73761 2.39107,-0.0956 3.00627,-0.24745 5.00392,-1.23473 z m 123.31178,7.99518 c -3.19143,-0.68544 -6.84533,-2.66569 -9.39117,-5.08959 -2.43754,-2.32078 -3.88517,-4.49217 -5.1067,-7.65982 l -0.80442,-2.08601 -0.10496,-11.7474 c -0.0976,-10.92004 -0.0667,-11.77539 0.43878,-12.14497 0.69548,-0.50855 18.39874,-0.55981 21.96635,-0.0636 10.38462,1.44437 18.08677,10.73038 17.30343,20.86169 -0.93184,12.05203 -12.3711,20.492 -24.30131,17.92969 z m 9.71511,-7.81302 c 3.90605,-1.82787 6.56559,-5.24537 7.33605,-9.42682 1.25154,-6.79236 -3.70597,-13.37298 -10.91224,-14.48494 -1.07892,-0.16647 -4.7465,-0.26363 -8.15019,-0.21589 l -6.18852,0.0868 v 8.04509 8.04507 l 0.82928,1.76932 c 1.52925,3.26274 4.65644,5.88467 8.26552,6.93004 0.87048,0.25213 2.47088,0.37142 4.1096,0.3063 2.2081,-0.0877 3.04321,-0.27476 4.7105,-1.05498 z m -112.69211,6.9946 c -0.49857,-0.49857 -0.52858,-29.6069 -0.0333,-32.28618 0.93895,-5.07923 4.78915,-9.76908 9.50006,-11.57185 3.03342,-1.16082 3.20302,-1.07508 4.6865,2.36941 1.20925,2.80776 1.25906,3.03313 0.75229,3.40368 -0.29849,0.21826 -0.86882,0.39684 -1.26742,0.39684 -1.19706,0 -3.65566,1.43671 -4.85365,2.8363 -2.00656,2.34421 -2.039,2.65348 -2.039,19.43665 0,11.2882 -0.0927,15.13653 -0.37132,15.41515 -0.50373,0.50373 -5.87044,0.50373 -6.37417,0 z m 66.50555,-0.0436 c -0.24016,-0.28938 -0.36866,-5.04135 -0.42467,-15.70338 l -0.0803,-15.28843 -2.25018,-0.0223 c -1.2376,-0.0123 -2.39165,-0.1638 -2.56457,-0.33671 -0.18348,-0.18347 -0.27727,-1.5916 -0.22523,-3.38138 l 0.0892,-3.06698 2.47541,-0.15472 2.47541,-0.15471 0.17059,-6.49794 c 0.0938,-3.57387 0.19827,-6.53747 0.23208,-6.58577 0.0338,-0.0483 1.55831,-0.0483 3.3878,0 l 3.32633,0.0878 0.15471,6.46978 0.15471,6.46977 3.49208,0.0282 c 2.74501,0.0221 3.55491,0.12746 3.78574,0.4923 0.35097,0.55474 0.39587,5.56351 0.0547,6.10042 -0.15901,0.25024 -1.42547,0.40551 -3.78574,0.46414 l -3.54677,0.0881 -0.0803,15.45485 c -0.0617,11.89192 -0.16877,15.51105 -0.46414,15.69863 -0.68385,0.43431 -5.99394,0.29968 -6.37683,-0.16167 z m 66.98028,0.15463 c -0.27439,-0.44397 -0.35522,-37.73052 -0.0824,-38.00464 0.38625,-0.38807 17.91326,-0.48939 20.92655,-0.12099 6.31474,0.77207 11.36043,5.06697 13.13858,11.1836 0.42437,1.45979 0.48342,3.50975 0.41408,14.37511 l -0.0809,12.67252 h -3.24897 -3.24898 l -0.15471,-12.37705 c -0.14663,-11.73049 -0.18853,-12.44979 -0.80198,-13.76947 -0.9647,-2.07528 -2.11934,-3.27319 -4.08568,-4.2388 l -1.765,-0.86672 h -7.1168 -7.1168 l -0.0653,15.16187 c -0.0359,8.33904 -0.12727,15.40556 -0.2031,15.70338 -0.11982,0.47058 -0.54454,0.5415 -3.24285,0.5415 -1.70773,0 -3.17736,-0.11714 -3.26584,-0.26031 z M 37.426628,132.81645 c -2.987966,-1.82206 -1.644991,-6.53339 1.862357,-6.53339 3.420294,0 4.895827,3.95023 2.340498,6.26588 -1.134064,1.0277 -2.784002,1.13273 -4.202855,0.26751 z m 11.245241,0.099 c -1.618221,-0.87804 -2.216544,-3.04011 -1.320713,-4.77245 0.659729,-1.27578 1.646324,-1.85998 3.141135,-1.85998 2.490072,0 4.323222,2.53512 3.411313,4.71762 -0.903804,2.1631 -3.215085,3.00903 -5.231735,1.91481 z M 317.08527,111.55144 c -1.47479,-0.75096 -2.28585,-2.05103 -2.31084,-3.70408 -0.0474,-3.13134 3.50511,-5.17308 6.1717,-3.54716 1.38954,0.84726 2.05386,2.00263 2.05386,3.57202 0,3.04811 -3.22025,5.05125 -5.91472,3.67922 z m 2.40789,-1.48793 c 0,-0.37507 -0.40744,-1.1083 -0.61586,-1.1083 -0.13213,0 -0.31306,0.27848 -0.40207,0.61885 -0.12003,0.45903 -0.009,0.61885 0.42806,0.61885 0.32443,0 0.58987,-0.0582 0.58987,-0.1294 z m -2.49634,-2.26865 c -0.018,-1.26035 -0.0675,-1.37338 -0.34792,-0.79327 -0.29746,0.61542 -0.13726,2.26304 0.22004,2.26304 0.0818,0 0.1394,-0.66139 0.12788,-1.46977 z m 4.3529,0.0591 c 0,-0.41542 -0.13924,-0.7553 -0.30943,-0.7553 -0.17017,0 -0.30941,0.42594 -0.30941,0.94653 0,0.55223 0.12889,0.86688 0.30941,0.75531 0.17019,-0.10518 0.30943,-0.53113 0.30943,-0.94654 z"
       id="path1" /></g></svg>
