<?xml version="1.0" encoding="UTF-8" standalone="no"?>
<!-- Generator: Adobe Illustrator 19.2.1, SVG Export Plug-In . SVG Version: 6.00 Build 0)  -->

<svg
   version="1.1"
   id="layer"
   x="0px"
   y="0px"
   viewBox="0 0 323 164"
   xml:space="preserve"
   sodipodi:docname="dainese.svg"
   width="323"
   height="164"
   inkscape:version="1.4 (86a8ad7, 2024-10-11)"
   xmlns:inkscape="http://www.inkscape.org/namespaces/inkscape"
   xmlns:sodipodi="http://sodipodi.sourceforge.net/DTD/sodipodi-0.dtd"
   xmlns="http://www.w3.org/2000/svg"
   xmlns:svg="http://www.w3.org/2000/svg"><defs
   id="defs2" /><sodipodi:namedview
   id="namedview2"
   pagecolor="#ffffff"
   bordercolor="#000000"
   borderopacity="0.25"
   inkscape:showpageshadow="2"
   inkscape:pageopacity="0.0"
   inkscape:pagecheckerboard="0"
   inkscape:deskcolor="#d1d1d1"
   inkscape:zoom="1"
   inkscape:cx="67"
   inkscape:cy="67.5"
   inkscape:window-width="1366"
   inkscape:window-height="745"
   inkscape:window-x="1352"
   inkscape:window-y="-8"
   inkscape:window-maximized="1"
   inkscape:current-layer="layer" />
<style
   type="text/css"
   id="style1">
	.st0{fill:#FF001A;}
</style>

<g
   id="g2"
   transform="matrix(0.31710807,0,0,0.31710807,58.043492,-20.996701)"><path
     d="m 157.5,504.1 -0.7,1.4 -0.1,0.3 L 139,537 H 77.2 l 17.9,-31.2 c 1.2,-2 3.7,-3.7 5.7,-3.7 h 55.7 c 0.7,0 1.2,0.7 1.2,1.3 0.1,0.3 0,0.4 -0.2,0.7 m 33.2,-13.2 h -89 -0.3 -5.4 c -3.9,0 -9,3.2 -11.2,7.1 l -44.1,76.7 h 14.8 l 15.1,-26.5 h 61.9 l -15,26.5 h 37.6 l 40.8,-71.1 c 4.2,-7 1.8,-12.7 -5.2,-12.7 m 126.7,83.9 39,-69 0.9,-1.7 c 0.2,-0.3 0.3,-0.5 0.3,-0.7 0,-0.7 -0.6,-1.3 -1.3,-1.3 h -1.8 -51.7 c -2,0 -4.5,1.7 -5.7,3.7 l -39,69 h -37.4 c 0,0 0,0.1 33.1,-57.7 l 11,-19 c 2.2,-4 7.2,-7.1 11.2,-7.1 h 5.5 87 c 7,0 9.4,5.6 5.4,12.7 l -41,71.1 h -15.5 m -264.2,-70.7 -0.8,1.4 -0.2,0.3 -10.9,19.4 -19.9,34.6 c -1.1,2 -3.7,3.6 -5.7,3.6 l -5.5,0.1 H -41 l 32.7,-57.8 2,-3.5 h 58.4 c 0.7,0 1.3,0.7 1.3,1.3 0,0.1 -0.1,0.2 -0.2,0.6 M 63,490.9 H -38.7 l -48.2,83.8 107.3,0.1 c 4,0 8.9,-3.2 11.2,-7.1 l 11,-19.1 25.9,-45 c 4,-7.1 1.6,-12.7 -5.5,-12.7 m 390.5,83.9 H 362 c -5.8,0 -10.7,-6.9 -7,-13.3 3.6,-6.5 34,-58.6 36.5,-63.2 2.5,-4.6 7.4,-7.3 12.1,-7.3 H 502 l -6.4,11 h -63.8 c -4.7,0 -7.9,1.6 -10.3,5.9 l -10,16.9 h 66.8 l -6.6,11.3 -66.4,-0.1 c 0,0 -10,16.8 -12.2,20.6 -2.3,3.8 0.2,7 4.2,7 H 460 l -6.5,11.2 m -198.8,-83.9 -48.9,83.8 h -36.7 l 49.4,-83.8 h 36.2 m 297.7,72.7 -40.8,-36 c -3.7,-3.4 -5,-8.9 -5,-14.3 0,-11.8 8.8,-21.1 20.4,-22.2 0.6,0 1.2,-0.1 1.8,-0.1 h 90.4 l -6.5,10.9 -77.7,-0.1 42.4,39 c 2.3,2.6 4.1,7 4.1,11 0,12.7 -10.3,23 -23,23 h -95 l 6.4,-11.2 h 82.5 m 138.5,11.2 h -91.5 c -5.8,0 -10.7,-6.9 -7,-13.3 3.6,-6.5 34,-58.6 36.5,-63.2 2.5,-4.6 7.4,-7.3 12.1,-7.3 h 98.4 l -6.4,11 h -63.8 c -4.7,0 -7.9,1.6 -10.3,5.9 l -10,16.9 h 66.8 l -6.6,11.3 -66.4,-0.1 c 0,0 -10,16.8 -12.2,20.6 -2.3,3.8 0.2,7 4.2,7 h 62.6 l -6.4,11.2"
     id="path1" /><g
     id="Header-_x26_-Footer">
	<g
   id="Header_dropdown_equestrian"
   transform="translate(-48,-135)">
		<g
   id="Group-2">
			<g
   id="DAINESE_"
   transform="translate(48,135)">
				<g
   id="Fill-1">
					<path
   class="st0"
   d="m 421,108.8 87,-34 -181.6,312.7 -181.6,-312.7 87,35.3 c 2.5,1.3 5,1.3 8.8,1.3 3.8,0 7.6,-1.3 10.1,-2.5 22.7,-12.6 49.2,-20.2 75.7,-20.2 26.5,0 53,7.6 75.7,20.2 2.5,1.3 6.3,2.5 10.1,2.5 3.7,-0.1 6.3,-1.3 8.8,-2.6 z M 313.8,255.1 V 182 l -54.2,-21.4 z m 25.2,0 54.2,-94.6 -54.2,21.4 z"
   id="path2" />
				</g>
			</g>
		</g>
	</g>
</g></g>
</svg>
