<?xml version="1.0" encoding="UTF-8" standalone="no"?>
<!-- Generator: Adobe Illustrator 19.2.1, SVG Export Plug-In . SVG Version: 6.00 Build 0)  -->

<svg
   version="1.1"
   id="layer"
   x="0px"
   y="0px"
   viewBox="0 0 323 164"
   xml:space="preserve"
   sodipodi:docname="flyer.svg"
   width="323"
   height="164"
   inkscape:version="1.4 (86a8ad7, 2024-10-11)"
   xmlns:inkscape="http://www.inkscape.org/namespaces/inkscape"
   xmlns:sodipodi="http://sodipodi.sourceforge.net/DTD/sodipodi-0.dtd"
   xmlns="http://www.w3.org/2000/svg"
   xmlns:svg="http://www.w3.org/2000/svg"><defs
   id="defs1" /><sodipodi:namedview
   id="namedview1"
   pagecolor="#ffffff"
   bordercolor="#000000"
   borderopacity="0.25"
   inkscape:showpageshadow="2"
   inkscape:pageopacity="0.0"
   inkscape:pagecheckerboard="0"
   inkscape:deskcolor="#d1d1d1"
   inkscape:zoom="1.696319"
   inkscape:cx="182.74864"
   inkscape:cy="76.341772"
   inkscape:window-width="1366"
   inkscape:window-height="745"
   inkscape:window-x="-8"
   inkscape:window-y="-8"
   inkscape:window-maximized="1"
   inkscape:current-layer="layer" />
<path
   d="m 281.83576,75.187701 c 0.7619,0 0.98599,0.492992 0.7619,1.254893 l -0.49299,1.523806 c -0.26891,0.761901 -0.98599,1.2549 -1.7479,1.2549 h -25.14278 l 1.25491,-4.033599 z m -110.16212,-5.781498 -2.77871,8.291292 c -0.493,0.985991 -1.25489,1.523805 -2.01679,1.523805 h -27.4285 c -0.76189,0 -1.25489,-0.492999 -0.98599,-1.523805 l 3.00279,-8.291292 h -12.32489 l -4.0336,10.801088 c -0.7619,2.778704 0.7619,4.795501 3.54061,4.795501 h 16.58258 l -3.2717,9.546195 h 12.32489 l 3.2717,-9.546195 h 16.35849 c 2.5098,-0.268904 5.2885,-2.016797 6.2745,-4.795501 l 3.76469,-10.801088 z m 64.62725,5.781498 2.01679,-5.781498 h -46.25195 l -9.09802,25.142784 h 46.29678 l 2.01681,-5.7815 h -33.97189 l 1.5238,-3.764695 h 33.97188 L 234.8219,79.2213 h -33.97188 l 1.2549,-4.033599 z M 101.75788,69.406203 H 89.432998 l -9.098021,25.142784 h 41.501283 l 2.2857,-5.7815 H 94.676673 Z m 194.19549,3.764694 V 72.6779 c 0,-2.016796 -1.52381,-3.271697 -4.0336,-3.271697 h -45.53488 l -9.05319,25.142784 h 12.32489 l 3.5406,-9.546195 h 16.3585 c 1.25489,0 2.28571,0.492998 3.00279,1.52381 l 6.2745,8.067195 h 13.08679 l -8.0672,-9.546184 h 3.2717 c 2.7787,0 5.51258,-2.016803 6.54339,-4.795507 l 2.0168,-5.512588 c 0.26891,-0.537814 0.26891,-1.075628 0.26891,-1.568621 z M 46.139008,75.187701 44.884107,79.2213 h 32.941076 l -2.016796,5.781492 H 42.643216 l -3.271698,9.546195 H 27.046627 l 8.784284,-25.142784 h 45.534878 l -2.016802,5.781498 z"
   id="path1"
   style="stroke-width:0.448179" />
</svg>
