<?xml version="1.0" encoding="UTF-8" standalone="no"?>
<!-- Generator: Adobe Illustrator 16.0.0, SVG Export Plug-In . SVG Version: 6.00 Build 0)  -->

<svg
   version="1.1"
   id="Layer_1"
   x="0px"
   y="0px"
   width="323"
   height="164"
   viewBox="0 0 323 164"
   enable-background="new 0 0 168 142"
   xml:space="preserve"
   sodipodi:docname="ktm.svg"
   inkscape:version="1.4 (86a8ad7, 2024-10-11)"
   xmlns:inkscape="http://www.inkscape.org/namespaces/inkscape"
   xmlns:sodipodi="http://sodipodi.sourceforge.net/DTD/sodipodi-0.dtd"
   xmlns="http://www.w3.org/2000/svg"
   xmlns:svg="http://www.w3.org/2000/svg"><defs
   id="defs1" /><sodipodi:namedview
   id="namedview1"
   pagecolor="#ffffff"
   bordercolor="#000000"
   borderopacity="0.25"
   inkscape:showpageshadow="2"
   inkscape:pageopacity="0.0"
   inkscape:pagecheckerboard="0"
   inkscape:deskcolor="#d1d1d1"
   inkscape:zoom="1.8351105"
   inkscape:cx="171.92425"
   inkscape:cy="74.382442"
   inkscape:window-width="1366"
   inkscape:window-height="745"
   inkscape:window-x="-8"
   inkscape:window-y="-8"
   inkscape:window-maximized="1"
   inkscape:current-layer="g11108" />
<g
   id="layer1"
   transform="matrix(1.8965546,0,0,1.8965546,-1888.2616,-185.27729)">
	<g
   id="g11108">
		<path
   id="path10993"
   fill="#221f1f"
   d="m 1015.561,161.2283 h 18.2285 l 4.5822,-11.19921 8.428,11.19921 h 39.2657 l 12.1415,-11.31246 -2.0226,11.31246 h 15.386 l 12.6906,-11.19467 -1.7371,11.19467 h 16.5886 l 6.8901,-31.22846 h -16.6747 l -13.5129,11.90702 2.6104,-11.90702 h -15.9885 l -17.4415,17.48001 7.2909,-21.39844 h 26.6736 l 1.222,-5.45408 h -69.9371 l -2.0566,5.45408 h 25.7201 l -10.8369,27.4686 -8.5458,-11.22866 14.7666,-12.32151 h -12.3589 l -15.1505,12.11539 5.1008,-12.11539 h -18.0611 l -13.2614,31.22846"
   style="stroke-width:1.13249;fill:#000000" />
	</g>
</g>
</svg>
