<?xml version="1.0" encoding="UTF-8" standalone="no"?>
<svg
   version="1.1"
   id="svg2"
   xml:space="preserve"
   width="323"
   height="164"
   viewBox="0 0 323 164"
   sodipodi:docname="ridley.svg"
   inkscape:version="1.4 (86a8ad7, 2024-10-11)"
   xmlns:inkscape="http://www.inkscape.org/namespaces/inkscape"
   xmlns:sodipodi="http://sodipodi.sourceforge.net/DTD/sodipodi-0.dtd"
   xmlns="http://www.w3.org/2000/svg"
   xmlns:svg="http://www.w3.org/2000/svg"><defs
     id="defs6" /><sodipodi:namedview
     id="namedview4"
     pagecolor="#ffffff"
     bordercolor="#666666"
     borderopacity="1.0"
     inkscape:pageshadow="2"
     inkscape:pageopacity="0.0"
     inkscape:pagecheckerboard="0"
     inkscape:showpageshadow="2"
     inkscape:deskcolor="#d1d1d1"
     inkscape:zoom="1.1127281"
     inkscape:cx="132.10775"
     inkscape:cy="59.763028"
     inkscape:window-width="1366"
     inkscape:window-height="745"
     inkscape:window-x="-8"
     inkscape:window-y="678"
     inkscape:window-maximized="1"
     inkscape:current-layer="g8" /><g
     id="g8"
     inkscape:groupmode="layer"
     inkscape:label="ink_ext_XXXXXX"
     transform="matrix(0.5664494,0,0,-0.5664494,1.9096598,101.40976)"><g
       id="g10"
       transform="scale(0.1)"><path
         d="m 819.238,359.832 v 0 l 142.965,237.949 c 5.453,6.867 8.793,14.879 14.125,25.746 9.652,17.18 6.77,40.047 -7.344,50.918 -6.828,5.129 -17.046,10.836 -32.558,10.868 H 298.199 c -54.554,-0.008 -136.515,-35.477 -144.39,-98.387 -3.942,-31.461 31,-36.629 54.566,-36.61 l 410.75,0.016 62.586,-0.023 c 20.672,0 43.437,-10.871 50.84,-29.75 5.254,-13.164 -8.141,-37.746 -16.828,-47.457 -27.942,-30.329 -68.551,-46.914 -105.25,-46.903 L 144.602,426.18 C 119.297,426.172 92.9648,422.195 69.7188,410.762 45.9297,399.895 26.375,381.57 12.6055,363.25 3.71094,351.832 0.238281,338.09 0.0117188,326.645 -0.65625,303.195 31.6094,290.031 51.1445,290.039 c 212.5005,0.024 425.0745,0.004 638.1995,0.008 33.336,0.004 70.89,11.433 99.484,33.172 12.356,11.433 23.063,23.457 30.41,36.613 z M 543.07,232.254 c -3.484,4.043 -5.011,5.719 -7.191,6.894 -6.27,4.563 -12.133,8.571 -20.371,11.43 -11.074,3.426 -21.34,4.012 -32.973,2.844 -29.566,-2.266 -52.922,-14.297 -77.09,-28.602 -15.757,-10.84 -33.562,-24.578 -41.718,-39.461 -8.028,-13.746 -11.743,-34.308 -6.09,-44.039 3.238,-6.293 6.082,-10.871 9.718,-14.32 L 464.309,20.6133 c 8.328,-6.875 12.546,-14.27346 27.636,-17.72658 35.84,-7.42969 74.063,-0.56641 108.36,21.16018 16.879,10.8672 28.625,26.8984 38.367,40.6133 11.219,16.0234 16.676,41.1758 3.406,54.3558 L 543.07,232.254"
         style="fill:#ee252c;fill-opacity:1;fill-rule:evenodd;stroke:none"
         id="path12" /><path
         d="m 3308.93,188.035 h 1245.72 c 20.01,0 41.17,6.61 64.53,20.153 l 65.37,37.898 c 2.77,1.609 4.11,4.859 3.31,8.066 -0.81,3.203 -3.49,5.368 -6.67,5.368 h -486.7 c -52.87,0 -78.22,35.621 -62.78,87.921 l 0.83,2.805 h 350.71 c 22,0 48.63,13.094 69.73,34.289 l 24.76,24.863 c 2.06,2.071 2.67,5.079 1.6,7.844 -1.07,2.77 -3.52,4.488 -6.39,4.488 H 4175.6 l 2.55,2.805 c 47.55,52.297 115.81,87.922 168.68,87.922 h 397.46 c 2.6,0 4.83,-1.383 6.07,-3.766 l 104.76,-201.847 c 6.07,-11.696 3.57,-27.231 -7.26,-45.207 -10.83,-17.981 -27.06,-33.508 -47.22,-45.199 L 4625.35,114.805 c -2.77,-1.61 -4.11,-4.86 -3.31,-8.063 0.8,-3.207 3.49,-5.367 6.67,-5.367 h 133.57 c 40.54,0 83.49,13.422 130.81,40.875 l 738.13,428.258 c 2.77,1.609 4.11,4.859 3.31,8.066 -0.8,3.203 -3.49,5.367 -6.67,5.367 h -234.73 c -1.23,0 -2.28,-0.285 -3.36,-0.91 L 5094.75,411.863 c -33.14,-19.226 -64.4,-19.226 -74.37,0 l -87.36,168.313 c -1.24,2.383 -3.47,3.765 -6.07,3.765 h -707.02 c -105.01,0 -243.52,-88.625 -309.37,-197.953 -26.98,-44.808 -38.55,-87.886 -32.92,-122.98 l 0.56,-3.488 h -319.98 c -20.1,0 -33.65,17.07 -21.04,38 l 165.89,275.441 c 1.36,2.269 1.43,4.937 0.19,7.281 -1.26,2.344 -3.46,3.699 -6.03,3.699 h -222.35 c -2.44,0 -4.54,-1.207 -5.84,-3.359 L 3270.47,250.879 c -17.24,-28.641 -0.26,-62.844 38.46,-62.844 z M 2601.25,580.582 2371.44,199.02 c -1.37,-2.27 -1.43,-4.938 -0.19,-7.286 1.25,-2.343 3.46,-3.699 6.03,-3.699 h 603.82 c 105.02,0 243.53,88.625 309.37,197.953 65.85,109.328 34.09,197.953 -70.93,197.953 h -612.46 c -2.44,0 -4.54,-1.207 -5.83,-3.359 z m 405.29,-68.125 c 67.1,0 87.39,-56.621 45.32,-126.469 C 3009.79,316.145 2921.3,259.52 2854.21,259.52 h -207.76 l 152.34,252.937 z m -503.89,71.484 H 2280.3 c -2.44,0 -4.54,-1.207 -5.83,-3.359 L 2099.84,290.641 c -11.28,-18.731 -29.07,-34.899 -50.27,-45.696 -21.15,-10.769 -40.06,-13.254 -53.19,-6.992 l -235.47,112.293 h 185.48 c 61.99,0 143.75,52.313 182.62,116.848 38.86,64.535 20.12,116.847 -41.87,116.847 h -792.35 c -17.83,0 -41.49,-15.14 -52.67,-33.699 -70.51,-117.074 -141.02,-234.148 -211.53,-351.222 -1.37,-2.27 -1.44,-4.938 -0.19,-7.286 1.24,-2.339 3.45,-3.699 6.03,-3.699 h 222.35 c 2.44,0 4.54,1.207 5.83,3.36 59.71,99.132 119.41,198.265 179.12,297.402 7.84,13.035 24.45,23.66 36.97,23.66 h 393.44 c 24.07,0 31.34,-20.312 16.26,-45.363 -15.09,-25.051 -46.84,-45.364 -70.9,-45.364 h -333.51 c -3.42,0 -6.35,-1.66 -8.12,-4.589 l -35.3,-58.618 c -1.44,-2.375 -1.76,-4.964 -0.96,-7.621 0.8,-2.652 2.5,-4.632 5,-5.828 l 325.14,-155.058 c 2.86,-1.368 5.58,-1.981 8.74,-1.981 147.72,0 295.43,0 443.14,0 29.2,0 67.97,24.805 86.28,55.207 l 198.58,329.719 c 1.36,2.269 1.44,4.937 0.19,7.281 -1.25,2.34 -3.46,3.699 -6.03,3.699"
         style="fill:#231f20;fill-opacity:1;fill-rule:evenodd;stroke:none"
         id="path14" /></g></g></svg>
