<?xml version="1.0" encoding="UTF-8" standalone="no"?>
<!-- Created with Inkscape (http://www.inkscape.org/) -->

<svg
   width="222.36371mm"
   height="32.285931mm"
   viewBox="0 0 222.36371 32.285931"
   version="1.1"
   id="svg1"
   xmlns:inkscape="http://www.inkscape.org/namespaces/inkscape"
   xmlns:sodipodi="http://sodipodi.sourceforge.net/DTD/sodipodi-0.dtd"
   xmlns="http://www.w3.org/2000/svg"
   xmlns:svg="http://www.w3.org/2000/svg">
  <sodipodi:namedview
     id="namedview1"
     pagecolor="#ffffff"
     bordercolor="#000000"
     borderopacity="0.25"
     inkscape:showpageshadow="2"
     inkscape:pageopacity="0.0"
     inkscape:pagecheckerboard="0"
     inkscape:deskcolor="#d1d1d1"
     inkscape:document-units="mm"
     showguides="false">
    <inkscape:page
       x="0"
       y="0"
       width="222.36371"
       height="32.285931"
       id="page2"
       margin="0"
       bleed="0" />
  </sodipodi:namedview>
  <defs
     id="defs1">
    <clipPath
       clipPathUnits="userSpaceOnUse"
       id="clipPath52-9">
      <path
         d="M 0,200 H 200 V 0 H 0 Z"
         transform="translate(-38.375501,-18.625003)"
         id="path52-8" />
    </clipPath>
    <clipPath
       clipPathUnits="userSpaceOnUse"
       id="clipPath50-4">
      <path
         d="M 0,200 H 200 V 0 H 0 Z"
         transform="translate(-50.583502,-34.710898)"
         id="path50-3" />
    </clipPath>
    <clipPath
       clipPathUnits="userSpaceOnUse"
       id="clipPath48-4">
      <path
         d="M 0,200 H 200 V 0 H 0 Z"
         transform="translate(-48.201201,-56.951204)"
         id="path48-1" />
    </clipPath>
  </defs>
  <g
     inkscape:label="Layer 1"
     inkscape:groupmode="layer"
     id="layer1"
     transform="translate(21.43125,-76.200003)">
    <path
       id="path47-0"
       d="m 0,0 c -0.189,0.248 -0.498,0.262 -0.705,0.029 -2.814,-3.162 -7.442,-6.832 -9.548,-8.398 -0.957,0.303 -1.907,0.496 -2.774,0.496 -0.865,0 -1.815,-0.189 -2.774,-0.486 -2.112,1.572 -6.727,5.234 -9.535,8.388 -0.208,0.233 -0.517,0.219 -0.705,-0.029 -2.445,-3.205 -4.874,-18.34 -2.928,-19.621 0.261,-0.172 0.648,-0.132 0.894,0.06 1.301,1.02 3.361,1.705 4.334,1.989 0.299,0.087 0.412,0.327 0.269,0.56 -0.186,0.303 -0.711,0.283 -0.961,0.282 -0.428,-0.002 -1.525,-0.395 -2.046,0.026 -0.24,0.192 -0.356,0.884 -0.423,1.268 -0.58,3.358 1.065,10.6 1.551,11.163 0.204,0.234 0.546,0.284 0.791,0.091 4.199,-3.293 5.519,-4.355 6.709,-4.956 -2.206,-0.977 -4.165,-2.249 -4.887,-2.782 -0.25,-0.185 -0.615,-0.144 -0.687,0.158 -0.151,0.635 -0.23,1.719 -0.266,2.379 -0.017,0.312 -0.163,0.777 -0.33,1.039 l -0.18,0.278 c -0.168,0.262 -0.345,0.226 -0.391,-0.082 -0.183,-1.254 -0.702,-4.336 -0.179,-5.584 0.122,-0.289 0.54,-0.416 0.828,-0.454 0.196,-0.027 0.328,-0.033 0.464,-0.018 0.315,0.038 0.756,0.058 1,0.251 1.188,0.948 3.34,1.941 5.679,3.049 0.502,0.216 2.326,0.963 3.755,0.963 0.996,0 2.236,-0.389 3.078,-0.704 2.559,-1.066 4.976,-2.281 6.263,-3.308 0.243,-0.193 0.684,-0.213 0.999,-0.251 0.137,-0.015 0.268,-0.009 0.464,0.018 0.289,0.038 0.707,0.165 0.828,0.454 0.524,1.248 0.005,4.33 -0.179,5.584 -0.045,0.308 -0.222,0.344 -0.391,0.082 l -0.179,-0.278 c -0.168,-0.262 -0.313,-0.727 -0.33,-1.039 -0.036,-0.66 -0.115,-1.744 -0.266,-2.379 -0.073,-0.302 -0.437,-0.343 -0.688,-0.158 -0.717,0.529 -2.625,1.789 -4.781,2.764 1.2,0.598 2.505,1.648 6.745,4.974 0.245,0.193 0.588,0.143 0.792,-0.091 0.486,-0.563 2.13,-7.805 1.551,-11.163 -0.067,-0.384 -0.184,-1.076 -0.423,-1.268 -0.521,-0.421 -1.619,-0.028 -2.046,-0.026 -0.25,0.001 -0.776,0.021 -0.962,-0.282 -0.143,-0.233 -0.029,-0.473 0.27,-0.56 0.973,-0.284 3.033,-0.969 4.334,-1.989 0.245,-0.192 0.633,-0.232 0.893,-0.06 C 4.873,-18.34 2.444,-3.205 0,0"
       style="display:inline;fill:#000000;fill-opacity:1;fill-rule:nonzero;stroke:none"
       transform="matrix(0.82342097,0,0,-0.82342097,3.0050158,76.360764)"
       clip-path="url(#clipPath48-4)" />
    <path
       id="path49-8"
       d="M 0,0 C -2.807,0.773 -4.004,1.42 -5.95,2.701 -6.21,2.872 -6.599,2.832 -6.843,2.64 -8.145,1.619 -10.205,0.936 -11.178,0.651 c -0.299,-0.087 -0.431,-0.34 -0.27,-0.559 0.162,-0.221 0.567,-0.423 0.878,-0.451 1.274,-0.118 2.737,0.051 3.716,0.269 0.305,0.068 0.755,-0.002 1.03,-0.148 0.468,-0.251 1.074,-0.522 1.658,-0.793 0.282,-0.132 0.371,-0.454 0.213,-0.723 -1.964,-3.328 -2.128,-6.743 -2.15,-8.178 -0.004,-0.31 -0.222,-0.697 -0.476,-0.877 -0.545,-0.387 -1.423,-1.071 -2.087,-1.837 -0.203,-0.237 -0.546,-0.286 -0.791,-0.093 -1.605,1.259 -2.969,2.218 -4.11,2.958 1.062,0.736 1.936,1.318 2.438,1.677 0.253,0.181 0.255,0.454 -0.004,0.625 -0.625,0.416 -1.729,1.165 -2.429,1.721 -0.243,0.194 -0.515,0.293 -0.604,0.186 -0.088,-0.109 0.017,-0.416 0.214,-0.657 0.178,-0.216 0.405,-0.478 0.638,-0.709 0.221,-0.219 0.202,-0.49 -0.077,-0.628 -0.469,-0.233 -1.144,-0.563 -2.045,-1.076 -0.9,0.513 -1.576,0.843 -2.044,1.076 -0.28,0.138 -0.299,0.409 -0.078,0.628 0.233,0.231 0.46,0.493 0.638,0.709 0.197,0.241 0.303,0.548 0.214,0.657 -0.089,0.107 -0.36,0.008 -0.604,-0.186 -0.699,-0.556 -1.804,-1.305 -2.429,-1.721 -0.259,-0.171 -0.257,-0.444 -0.004,-0.625 0.502,-0.359 1.376,-0.941 2.439,-1.677 -1.142,-0.74 -2.506,-1.699 -4.111,-2.958 -0.245,-0.193 -0.588,-0.144 -0.792,0.093 -0.663,0.766 -1.541,1.45 -2.086,1.837 -0.254,0.18 -0.471,0.567 -0.476,0.877 -0.022,1.435 -0.187,4.85 -2.15,8.178 -0.158,0.269 -0.069,0.591 0.213,0.723 0.584,0.271 1.19,0.542 1.658,0.793 0.275,0.146 0.725,0.216 1.029,0.148 0.98,-0.218 2.443,-0.387 3.718,-0.269 0.31,0.028 0.715,0.23 0.877,0.451 0.161,0.219 0.029,0.472 -0.27,0.559 -0.973,0.285 -3.033,0.968 -4.334,1.989 -0.245,0.192 -0.634,0.232 -0.893,0.061 C -26.868,1.42 -28.065,0.773 -30.872,0 c -0.3,-0.082 -0.365,-0.324 -0.17,-0.566 1.685,-2.092 4.457,-6.81 3.052,-10.237 -0.118,-0.289 0,-0.589 0.288,-0.707 1.179,-0.481 2.981,-1.642 5.426,-4.847 0.189,-0.248 0.497,-0.262 0.704,-0.03 1.66,1.866 4.03,3.748 6.136,5.282 2.106,-1.534 4.476,-3.416 6.136,-5.282 0.207,-0.232 0.515,-0.218 0.704,0.03 2.445,3.205 4.247,4.366 5.426,4.847 0.288,0.118 0.406,0.418 0.288,0.707 -1.405,3.427 1.367,8.145 3.052,10.237 C 0.365,-0.324 0.3,-0.082 0,0"
       style="display:inline;fill:#000000;fill-opacity:1;fill-rule:nonzero;stroke:none"
       transform="matrix(0.82342097,0,0,-0.82342097,4.9666525,94.673899)"
       clip-path="url(#clipPath50-4)" />
    <path
       id="path51-7"
       d="M 0,0 C -0.653,0.191 -2.034,0.65 -2.907,1.334 -2.946,1.365 -2.991,1.39 -3.039,1.408 -3.102,1.436 -3.171,1.448 -3.241,1.447 -3.311,1.448 -3.38,1.436 -3.443,1.408 -3.491,1.39 -3.536,1.365 -3.575,1.334 -4.447,0.65 -5.829,0.191 -6.481,0 c -0.201,-0.059 -0.29,-0.228 -0.181,-0.375 0.108,-0.148 0.38,-0.283 0.588,-0.303 0.855,-0.078 1.836,0.318 2.492,0.463 0,0 0.235,0.076 0.336,0.076 0.002,0 0.004,0 0.005,0.001 0.002,-0.001 0.004,-0.001 0.005,-0.001 0.101,0 0.336,-0.076 0.336,-0.076 0.656,-0.145 1.638,-0.541 2.492,-0.463 0.208,0.02 0.48,0.155 0.589,0.303 C 0.289,-0.228 0.2,-0.059 0,0"
       style="display:inline;fill:#000000;fill-opacity:1;fill-rule:nonzero;stroke:none"
       transform="matrix(0.82342097,0,0,-0.82342097,-5.0856725,107.91936)"
       clip-path="url(#clipPath52-9)" />
    <path
       d="m 25.581578,99.143003 c 0.391792,0.689554 0.955974,1.112687 1.786575,1.112687 0.81493,0 1.53583,-0.470147 1.81792,-1.441792 l 2.71121,-9.214972 h -3.16569 l -0.987319,3.65151 c -0.313433,1.159705 -0.548508,2.052997 -0.720899,2.883595 -0.329105,-0.705225 -0.689555,-1.441796 -1.473142,-2.883595 l -1.39478,-2.648519 c -0.548513,-1.034336 -1.097021,-1.175383 -1.880608,-1.175383 -0.767916,0 -1.300753,0.141047 -1.849263,1.175383 l -1.410454,2.632847 c -0.7209,1.363438 -1.128366,2.162699 -1.473142,2.899267 -0.156718,-0.846272 -0.376121,-1.708216 -0.705228,-2.883595 l -0.98732,-3.65151 h -3.244045 l 2.664193,9.214972 c 0.28209,0.971645 1.002987,1.441792 1.817917,1.441792 0.846275,0 1.410457,-0.438802 1.786578,-1.112687 l 1.676874,-2.977626 c 0.90896,-1.614189 1.332095,-2.382102 1.661202,-3.134347 0.36045,0.752245 0.783587,1.535829 1.692547,3.150018 z m 10.844834,-9.544077 h -3.244048 v 10.484384 h 3.244048 z m 5.265711,7.788844 v -7.788844 h -3.244048 v 10.484384 h 9.261988 l 2.100011,-2.69554 z m 22.535943,-2.648519 c 0,-3.024645 -2.648521,-5.140325 -6.315704,-5.140325 h -4.952265 l -2.068666,2.726878 h 7.020931 c 1.755232,0 3.103001,1.08135 3.103001,2.554491 0,1.504485 -1.300752,2.507475 -3.103001,2.507475 H 54.151148 V 93.5482 h -3.259717 v 6.53511 h 7.020931 c 3.63584,0 6.315704,-2.303745 6.315704,-5.344059 z m 20.592622,3.306731 c -0.7209,-0.736571 -1.112692,-1.112692 -1.473142,-1.379112 1.72389,-0.344778 2.742552,-1.692544 2.742552,-3.322404 0,-2.993297 -3.008972,-3.74554 -5.391074,-3.74554 h -6.738839 l -2.115683,2.726878 h 9.120942 c 1.112692,0 1.786578,0.407466 1.786578,1.222396 0,0.720897 -0.783588,1.175377 -1.786578,1.175377 h -9.120942 v 5.359733 h 3.244046 v -2.773899 h 4.983607 l 2.335088,2.773899 h 4.341066 z m 19.715042,2.037328 -6.550784,-9.481393 c -0.45448,-0.658215 -1.09702,-1.175383 -2.068668,-1.175383 -1.018662,0 -1.661202,0.564182 -2.100009,1.175383 l -6.72317,9.481393 h 3.839572 l 4.920922,-6.95825 1.880605,2.773897 c 0.344779,0.501497 0.783588,1.144035 1.065678,1.520156 -0.501496,-0.03134 -1.238067,-0.03134 -1.864936,-0.03134 h -2.632848 l -1.958964,2.695537 z m 5.5321,-2.69554 c -1.7709,0 -3.07165,-1.018662 -3.07165,-2.507475 0,-1.504487 1.31642,-2.554491 3.07165,-2.554491 h 5.26571 l 2.08433,-2.726878 h -7.35004 c -3.63583,0 -6.3157,2.068666 -6.3157,5.140325 0,3.040314 2.67987,5.344059 6.3157,5.344059 h 5.26571 l 2.08433,-2.69554 z m 11.73813,0 v -1.426125 h 6.44108 l 1.86493,-2.382102 h -8.30601 v -1.253739 h 6.78585 l 2.10001,-2.726878 h -12.14558 v 10.484384 h 10.09259 l 2.08434,-2.69554 z m 17.14485,-7.788844 -2.10001,2.726878 h 4.92092 v 7.757506 h 3.24404 v -7.757506 h 3.74555 l 2.10001,-2.726878 z m 16.15753,7.788844 v -1.426125 h 6.44107 l 1.86494,-2.382102 h -8.30601 v -1.253739 h 6.78585 l 2.10001,-2.726878 h -12.14558 v 10.484384 h 10.09259 l 2.08434,-2.69554 z m 26.12474,2.69554 -6.55078,-9.481393 c -0.45448,-0.658215 -1.09702,-1.175383 -2.06866,-1.175383 -1.01867,0 -1.66121,0.564182 -2.10002,1.175383 l -6.72316,9.481393 h 3.83957 l 4.92092,-6.95825 1.88061,2.773897 c 0.34477,0.501497 0.78358,1.144035 1.06567,1.520156 -0.50149,-0.03134 -1.23807,-0.03134 -1.86493,-0.03134 h -2.63285 l -1.95897,2.695537 z m 6.72318,-9.544081 c -0.37612,-0.689557 -0.9403,-1.112695 -1.7709,-1.112695 -0.81493,0 -1.5515,0.470152 -1.83359,1.4418 l -2.71121,9.214976 h 3.18136 l 0.98732,-3.651514 c 0.31343,-1.17538 0.5485,-2.052997 0.70522,-2.883596 0.32911,0.705226 0.70523,1.441797 1.47314,2.883596 l 1.41046,2.648519 c 0.54851,1.034335 1.08135,1.175375 1.86494,1.175375 0.78358,0 1.31642,-0.14104 1.86493,-1.175375 l 1.41045,-2.632848 c 0.7209,-1.36344 1.1127,-2.162698 1.45748,-2.899267 0.17238,0.846273 0.39179,1.692545 0.72089,2.883596 l 0.98732,3.651514 h 3.22838 l -2.64852,-9.214976 c -0.2821,-0.971648 -1.00299,-1.4418 -1.81792,-1.4418 -0.84627,0 -1.41046,0.438809 -1.78658,1.112695 l -1.67687,2.977626 c -0.92463,1.614186 -1.3321,2.382102 -1.67688,3.118673 -0.36045,-0.736571 -0.76791,-1.520156 -1.69254,-3.134344 z"
       id="text27"
       style="font-size:74.6667px;font-family:Ethnocentric;-inkscape-font-specification:Ethnocentric;display:inline;stroke-width:0.421457"
       aria-label="wild race team"
       inkscape:label="text27" />
  </g>
</svg>
