<?xml version="1.0" encoding="UTF-8" standalone="no"?>
<svg
   width="323"
   height="164"
   version="1.1"
   viewBox="81 227.6 1716.4346 871.55067"
   class="inline-block"
   id="svg16"
   sodipodi:docname="argon18.svg"
   inkscape:version="1.4 (86a8ad7, 2024-10-11)"
   xmlns:inkscape="http://www.inkscape.org/namespaces/inkscape"
   xmlns:sodipodi="http://sodipodi.sourceforge.net/DTD/sodipodi-0.dtd"
   xmlns="http://www.w3.org/2000/svg"
   xmlns:svg="http://www.w3.org/2000/svg">
  <sodipodi:namedview
     id="namedview16"
     pagecolor="#ffffff"
     bordercolor="#000000"
     borderopacity="0.25"
     inkscape:showpageshadow="2"
     inkscape:pageopacity="0.0"
     inkscape:pagecheckerboard="0"
     inkscape:deskcolor="#d1d1d1"
     inkscape:zoom="1.6670174"
     inkscape:cx="161.96591"
     inkscape:cy="62.686807"
     inkscape:window-width="1366"
     inkscape:window-height="745"
     inkscape:window-x="-8"
     inkscape:window-y="-8"
     inkscape:window-maximized="1"
     inkscape:current-layer="svg16" />
  <defs
     id="defs8">
    <clipPath
       id="clipPath2">
      <path
         transform="translate(-988.84,-241.01)"
         d="M 0,500 H 1080 V 0 H 0 Z"
         id="path1" />
    </clipPath>
    <clipPath
       id="clipPath4">
      <path
         transform="translate(-607.58,-219.79)"
         d="M 0,500 H 1080 V 0 H 0 Z"
         id="path2" />
    </clipPath>
    <clipPath
       id="clipPath6">
      <path
         transform="translate(-117.83,-223.24)"
         d="M 0,500 H 1080 V 0 H 0 Z"
         id="path3" />
    </clipPath>
    <clipPath
       id="clipPath8">
      <path
         transform="translate(-267.26,-241.43)"
         d="M 0,500 H 1080 V 0 H 0 Z"
         id="path4" />
    </clipPath>
    <clipPath
       id="clipPath10">
      <path
         transform="translate(-359.1,-235.57)"
         d="M 0,500 H 1080 V 0 H 0 Z"
         id="path5" />
    </clipPath>
    <clipPath
       id="clipPath12">
      <path
         transform="translate(-491.34,-230.44)"
         d="M 0,500 H 1080 V 0 H 0 Z"
         id="path6" />
    </clipPath>
    <clipPath
       id="clipPath14">
      <path
         transform="translate(-798.38,-243.13)"
         d="M 0,500 H 1080 V 0 H 0 Z"
         id="path7" />
    </clipPath>
    <clipPath
       id="clipPath16">
      <path
         transform="translate(-703.05,-261.88)"
         d="M 0,500 H 1080 V 0 H 0 Z"
         id="path8" />
    </clipPath>
  </defs>
  <g
     transform="matrix(1.3409356,0,0,1.3409356,-15.766605,181.50792)"
     fill="#000000 icc-color(sRGB-IEC61966-2, 0.1, 0, 0, 0)"
     id="g16">
    <path
       transform="matrix(1.3333,0,0,-1.3333,1318.5,345.33)"
       d="m 0,0 c -10.256,0 -18.574,-8.289 -18.626,-18.533 l -8.117,-1.611 c -2.346,4.947 -7.384,8.37 -13.223,8.37 -3.617,0 -6.924,-1.316 -9.478,-3.491 l -3.724,2.732 c 0.918,2.203 1.426,4.619 1.426,7.155 0,10.289 -8.34,18.629 -18.628,18.629 -1.043,0 -2.064,-0.09 -3.06,-0.255 l -3.249,9.259 c 4.114,2.588 6.85,7.166 6.85,12.385 0,8.078 -6.548,14.626 -14.626,14.626 -8.078,0 -14.626,-6.548 -14.626,-14.626 0,-8.078 6.548,-14.626 14.626,-14.626 0.234,0 0.467,0.007 0.699,0.018 l 3.399,-9.688 c -5.193,-3.305 -8.642,-9.109 -8.642,-15.722 0,-6.04 2.877,-11.406 7.333,-14.81 l -6.478,-13.46 c -1.509,0.394 -3.092,0.606 -4.725,0.606 -10.288,0 -18.629,-8.34 -18.629,-18.629 0,-10.288 8.341,-18.628 18.629,-18.628 10.288,0 18.629,8.34 18.629,18.628 0,6.004 -2.843,11.34 -7.252,14.747 l 6.495,13.497 c 1.48,-0.378 3.03,-0.579 4.627,-0.579 5.079,0 9.68,2.034 13.041,5.33 l 3.636,-2.667 c -0.581,-1.576 -0.899,-3.279 -0.899,-5.057 0,-8.078 6.549,-14.626 14.626,-14.626 7.731,0 14.056,5.998 14.586,13.594 l 8.187,1.625 c 2.811,-6.725 9.449,-11.45 17.193,-11.45 10.288,0 18.629,8.34 18.629,18.628 C 18.629,-8.34 10.288,0 0,0"
       clip-path="url(#clipPath2)"
       id="path9" />
    <path
       transform="matrix(1.3333,0,0,-1.3333,810.1,373.61)"
       d="m 0,0 h -0.354 l -9.645,24.887 c -4.277,12.281 -10.32,17.23 -29.213,17.283 H -69.16 l -17.967,-62.931 h 31.024 l 12.883,45.035 0.233,-0.001 17.373,-45.041 50.637,0.007 17.968,62.931 H 11.993 Z"
       clip-path="url(#clipPath4)"
       id="path10" />
    <path
       transform="matrix(1.3333,0,0,-1.3333,157.1,369.01)"
       d="M 0,0 20.054,22.001 26.859,-0.072 Z M 35.763,38.772 C -0.973,38.873 -7.979,26.721 -19.991,14.234 l -37.073,-38.412 34.951,-0.096 9.582,10.479 43.745,-0.118 3.082,-10.241 H 73.502 L 48.69,38.737 Z"
       clip-path="url(#clipPath6)"
       id="path11" />
    <path
       transform="matrix(1.3333,0,0,-1.3333,356.34,344.75)"
       d="m 0,0 c -1.669,-6 -8.186,-7.749 -15.88,-7.729 l -13.726,0.038 4.413,15.351 13.138,-0.032 C -3.298,7.603 1.668,5.645 0,0 m 36.103,2.817 c 4.054,14.118 -9.428,17.6 -32.743,17.665 l -60.789,0.038 -17.997,-62.931 h 35.907 l 6.451,22.362 10.893,-0.031 c 12.306,-0.031 13.484,-1.092 12.876,-8.955 l -1.039,-13.376 h 35.965 l 1.422,20.43 c 0.49,6.448 -5.777,8.672 -13.945,8.871 l 0.241,0.887 c 11.008,1.378 20.371,6.656 22.758,15.04"
       clip-path="url(#clipPath8)"
       id="path12" />
    <path
       transform="matrix(1.3333,0,0,-1.3333,478.79,352.58)"
       d="m 0,0 -3.718,-13.072 20.294,-0.053 -2.674,-9.462 c -3.579,-1.278 -9.346,-2.123 -16.957,-2.101 -17.411,0.045 -22.235,8.664 -18.863,20.618 3.252,11.177 13.649,18.636 28.639,18.596 5.533,-0.016 9.108,-1.058 11.18,-2.526 2.076,-1.469 2.991,-3.367 2.988,-5.002 L 57.441,6.899 c 3.842,15.655 -16.325,20.615 -46.538,20.697 -36.67,0.098 -61.715,-9.986 -68.343,-33.29 -5.232,-18.318 3.731,-31.939 45.59,-32.053 18.336,-0.051 40.596,2.043 57.785,4.835 l 9.414,32.762 z"
       clip-path="url(#clipPath10)"
       id="path13" />
    <path
       transform="matrix(1.3333,0,0,-1.3333,655.12,359.42)"
       d="m 0,0 c -3.72,-12.725 -13.763,-18.553 -25.297,-18.519 -11.528,0.032 -18.321,5.902 -14.6,18.627 3.602,12.726 13.765,18.553 25.294,18.522 C -3.073,18.598 3.602,12.725 0,0 m -10.536,32.73 c -21.445,0.059 -32.522,-2.579 -41.757,-6.768 -10.967,-5.051 -19.98,-13.718 -23.354,-25.755 -5.344,-18.575 5.579,-32.718 46.282,-32.829 21.447,-0.06 37.141,4.202 47.995,10.625 8.311,4.884 14.324,12.357 17.117,21.898 5.345,18.576 -5.578,32.718 -46.283,32.829"
       clip-path="url(#clipPath12)"
       id="path14" />
    <path
       transform="matrix(1.3333,0,0,-1.3333,1064.5,342.49)"
       d="m 0,0 c -1.158,-4.043 -5.085,-5.202 -15.564,-5.173 -10.472,0.029 -13.742,1.208 -12.583,5.249 1.106,3.871 5.049,5.027 15.517,4.997 C -2.151,5.045 1.109,3.87 0,0 m -5.128,-24.555 c -0.95,-3.323 -4.957,-5.837 -17.543,-5.805 -12.598,0.035 -15.154,2.568 -14.202,5.891 1.441,5.038 5.979,6.466 17.704,6.347 11.771,0.052 15.486,-1.397 14.041,-6.433 m -3.061,44.74 C -34.853,20.258 -53.8,16.983 -57.872,2.769 c -2.042,-7.104 1.621,-11.702 9.438,-12.893 l -0.056,-0.178 c -10.491,-1.146 -17.715,-7.874 -19.515,-14.173 -4.178,-14.566 8.72,-20.908 40.893,-20.996 32.385,-0.088 48.894,6.174 53.072,20.74 1.804,6.3 -1.553,13.057 -11.592,14.257 l 0.055,0.179 c 8.48,1.145 14.769,5.718 16.808,12.82 4.073,14.214 -12.965,17.588 -39.42,17.66"
       clip-path="url(#clipPath14)"
       id="path15" />
    <path
       transform="matrix(1.3333,0,0,-1.3333,937.39,317.49)"
       d="m 0,0 -40.434,-17.267 12.89,-10.971 27.678,11.915 -13.414,-46.469 h 28.183 l 17.981,62.666 z"
       clip-path="url(#clipPath16)"
       id="path16" />
  </g>
</svg>
