<?xml version="1.0" encoding="UTF-8" standalone="no"?>
<svg
   width="323"
   height="164"
   viewBox="0 0 24.904075 12.644794"
   version="1.1"
   id="svg7"
   sodipodi:docname="bell.svg"
   inkscape:version="1.4 (86a8ad7, 2024-10-11)"
   xmlns:inkscape="http://www.inkscape.org/namespaces/inkscape"
   xmlns:sodipodi="http://sodipodi.sourceforge.net/DTD/sodipodi-0.dtd"
   xmlns="http://www.w3.org/2000/svg"
   xmlns:svg="http://www.w3.org/2000/svg">
  <defs
     id="defs7" />
  <sodipodi:namedview
     id="namedview7"
     pagecolor="#ffffff"
     bordercolor="#000000"
     borderopacity="0.25"
     inkscape:showpageshadow="2"
     inkscape:pageopacity="0.0"
     inkscape:pagecheckerboard="0"
     inkscape:deskcolor="#d1d1d1"
     inkscape:zoom="0.94582603"
     inkscape:cx="112.07135"
     inkscape:cy="-12.158684"
     inkscape:window-width="1366"
     inkscape:window-height="745"
     inkscape:window-x="-8"
     inkscape:window-y="-8"
     inkscape:window-maximized="1"
     inkscape:current-layer="svg7" />
  <g
     fill-rule="evenodd"
     clip-rule="evenodd"
     id="g7"
     style="display:inline"
     transform="matrix(0.14170332,0,0,0.14170332,-1.2050451,-7.334622)">
    <path
       id="path2"
       style="display:inline"
       d="m 96.37002,54.015051 c -48.391,0 -87.8660167,19.026915 -87.8660167,42.353915 0,23.328004 39.4750167,42.371084 87.8660167,42.371084 48.407,0 87.88198,-19.04308 87.88198,-42.371084 0,-23.328 -39.47398,-42.353915 -87.88198,-42.353915 z m 0,4.474951 c 45.945,0 83.40793,17.014964 83.40793,37.878964 0,20.865004 -37.46293,37.881074 -83.40793,37.881074 -45.928,0 -83.391066,-17.01607 -83.391066,-37.881074 0,-20.865 37.463066,-37.878964 83.391066,-37.878964 z" />
    <path
       id="path4"
       style="display:inline"
       d="M 30.531948,76.648973 V 114.44105 H 57.814 c 7.389,0 10.702065,-3.01708 11.031065,-8.68908 0.243,-4.404 -2.532076,-9.347901 -7.579076,-10.006901 4.249,-1.908 6.573031,-5.862112 6.382031,-9.730112 -0.278,-5.168 -3.746994,-9.365984 -10.770994,-9.365984 z m 41.105067,0 V 114.44195 H 101.24404 V 104.22694 H 86.726046 V 99.266028 H 101.24404 V 91.842964 H 86.726046 V 86.865041 H 101.24404 V 76.648973 Z m 34.095975,0 v 37.792977 h 28.72306 V 104.22694 H 120.841 V 76.648973 h -15.10695 z m 31.09998,0 v 37.792977 h 28.72109 V 104.22694 H 151.93902 V 76.648973 h -15.105 z m -91.194975,8.030998 h 4.335956 c 1.892,0 4.09412,1.856075 4.25012,3.729075 0.156,1.856 -1.717064,4.284003 -3.573064,4.284003 h -5.013012 z m 0.0011,14.255963 h 4.474952 c 1.786,0 4.040995,1.822056 3.988995,3.609056 -0.105,2.688 -1.041054,4.68201 -3.851054,4.68201 h -4.612893 z m 124.875925,4.076036 c -2.047,0 -3.729,1.66596 -3.711,3.71296 a 3.72,3.72 0 0 0 3.711,3.72908 c 2.065,-0.018 3.72908,-1.66708 3.72908,-3.72908 a 3.72,3.72 0 0 0 -3.72908,-3.71296 z m 0.001,0.41699 c 1.82,0 3.29492,1.49097 3.29492,3.29597 0,1.82 -1.47492,3.29508 -3.29492,3.29508 -1.82,0 -3.27701,-1.47501 -3.27701,-3.27701 -0.018,-1.822 1.45701,-3.31404 3.27701,-3.31404 z" />
    <path
       d="m 169.129,108.666 h 0.537 v -1.752 h 1.336 c 0.85,0 0.623,0.746 0.711,1.232 l 0.086,0.52 h 0.625 c -0.225,-0.363 -0.156,-0.451 -0.191,-0.988 -0.068,-0.711 -0.086,-0.764 -0.502,-1.041 0.398,-0.295 0.555,-0.502 0.537,-1.023 -0.053,-0.918 -0.66,-1.039 -1.301,-1.039 h -1.838 z"
       id="path6"
       style="display:inline" />
    <path
       d="m 170.984,105.023 c 0.312,0 0.814,0.088 0.746,0.799 -0.053,0.52 -0.4,0.625 -0.746,0.625 h -1.318 v -1.424 z"
       fill="#ffffff"
       id="path7"
       style="display:inline" />
  </g>
</svg>
