<?xml version="1.0" encoding="UTF-8" standalone="no"?>
<!-- Generator: Adobe Illustrator 19.1.0, SVG Export Plug-In . SVG Version: 6.00 Build 0)  -->

<svg
   version="1.1"
   x="0px"
   y="0px"
   viewBox="0 0 322.99999 164"
   xml:space="preserve"
   id="svg1"
   sodipodi:docname="bhbikes.svg"
   width="323"
   height="164"
   inkscape:version="1.4 (86a8ad7, 2024-10-11)"
   xmlns:inkscape="http://www.inkscape.org/namespaces/inkscape"
   xmlns:sodipodi="http://sodipodi.sourceforge.net/DTD/sodipodi-0.dtd"
   xmlns="http://www.w3.org/2000/svg"
   xmlns:svg="http://www.w3.org/2000/svg"><defs
   id="defs1" /><sodipodi:namedview
   id="namedview1"
   pagecolor="#ffffff"
   bordercolor="#000000"
   borderopacity="0.25"
   inkscape:showpageshadow="2"
   inkscape:pageopacity="0.0"
   inkscape:pagecheckerboard="0"
   inkscape:deskcolor="#d1d1d1"
   inkscape:zoom="1.4087093"
   inkscape:cx="174.98287"
   inkscape:cy="12.422719"
   inkscape:window-width="1366"
   inkscape:window-height="745"
   inkscape:window-x="-8"
   inkscape:window-y="-8"
   inkscape:window-maximized="1"
   inkscape:current-layer="g2" />
<style
   type="text/css"
   id="style1">
	.st0{fill:#C02A2F;}
	.st1{fill-rule:evenodd;clip-rule:evenodd;}
</style>
<g
   id="Capa_2">
</g>
<g
   id="Primer_plano"
   transform="matrix(2.1390272,0,0,2.1390272,55.725105,38.898602)">
	<g
   id="g2"><g
     id="g1"
     transform="translate(1.5,-6.35)">
		<polygon
   class="st0"
   points="3,51.2 4.5,44.5 83,44.5 81.4,51.2 "
   id="polygon1" />
		<path
   class="st1"
   d="m 22.8,23.1 h 6.1 c 1.9,0 5.6,0.2 4.7,3.3 -1,3.6 -4.8,3.6 -6.2,3.6 h -6.2 z m 3,-12.8 h 5.5 c 2,0 4.8,0.3 4,3 -0.6,2.3 -3,3.2 -5.2,3.2 H 24.3 Z M 14.6,1.8 h 20.1 c 21.3,0 12.2,16 6.6,17.1 0,0 -0.4,0.2 -0.1,0.3 8.3,1.1 8.1,19.3 -14.1,19.3 H 6 Z M 80,2.1 H 92.9 L 84.5,37.9 H 71.6 L 74.8,24.1 H 62.5 L 59.3,37.9 H 46.4 L 54.8,2.1 h 12.9 l -2.8,12.1 h 12.4 z"
   id="path1" />
	</g></g>
</g>
</svg>
