<?xml version="1.0" encoding="UTF-8" standalone="no"?>
<!-- Generator: Adobe Illustrator 19.2.1, SVG Export Plug-In . SVG Version: 6.00 Build 0)  -->

<svg
   version="1.1"
   id="layer"
   x="0px"
   y="0px"
   viewBox="0 0 323 164"
   xml:space="preserve"
   sodipodi:docname="camelbak.svg"
   width="323"
   height="164"
   inkscape:version="1.4 (86a8ad7, 2024-10-11)"
   xmlns:inkscape="http://www.inkscape.org/namespaces/inkscape"
   xmlns:sodipodi="http://sodipodi.sourceforge.net/DTD/sodipodi-0.dtd"
   xmlns="http://www.w3.org/2000/svg"
   xmlns:svg="http://www.w3.org/2000/svg"><defs
   id="defs1" /><sodipodi:namedview
   id="namedview1"
   pagecolor="#ffffff"
   bordercolor="#000000"
   borderopacity="0.25"
   inkscape:showpageshadow="2"
   inkscape:pageopacity="0.0"
   inkscape:pagecheckerboard="0"
   inkscape:deskcolor="#d1d1d1"
   inkscape:zoom="0.51840037"
   inkscape:cx="193.8656"
   inkscape:cy="255.59395"
   inkscape:window-width="1366"
   inkscape:window-height="745"
   inkscape:window-x="-8"
   inkscape:window-y="-8"
   inkscape:window-maximized="1"
   inkscape:current-layer="layer" />
<path
   d="M 255.57374,115.70667 H 65.227976 v -9.61211 H 255.57374 Z M 130.48692,49.068419 h -6.68107 c 0,0 -6.20693,13.965586 -7.58625,17.025946 -1.33621,-3.017257 -7.58624,-17.025946 -7.58624,-17.025946 h -7.58624 v 51.810601 h 8.79314 l -0.38793,-32.974302 6.81038,16.163871 6.76727,-16.163871 -0.34483,32.974302 h 8.75005 V 49.025315 l -0.94828,0.0431 m 17.88801,44.051939 c 0,-1.551732 0,-13.66386 0,-15.215592 1.55174,0 11.46558,0 11.46558,0 v -7.844865 c 0,0 -9.91384,0 -11.46558,0 0,-1.508628 0,-11.594884 0,-13.103512 1.59484,0 12.54317,0 12.54317,0 v -7.844866 h -0.90518 -20.56044 v 51.853701 h 22.11217 v -7.801763 c 0.0431,-0.0431 -11.59488,-0.0431 -13.18972,-0.0431 m 29.87084,0 c 0,-1.76725 0,-44.008835 0,-44.008835 h -0.90518 -8.01728 v 51.853698 h 21.42252 v -7.844863 c 0.0431,0 -10.90522,0 -12.50006,0 m 27.19841,-22.888042 c 0,-1.594836 0,-11.724196 0,-13.275927 4.43968,0.08621 6.89658,2.370701 6.89658,6.465549 0.0431,4.181055 -2.58621,6.724171 -6.89658,6.810378 m 0.34483,22.888042 h -0.34483 c 0,-1.551732 0,-13.448342 0,-15.000074 0.12931,0 0.30172,0 0.30172,0 7.28452,0 7.84487,5.905202 7.84487,7.672452 0,4.655195 -2.84484,7.327622 -7.80176,7.327622 m 9.09487,-20.043201 c 4.09485,-2.672427 6.37934,-6.422445 6.37934,-10.732811 0,-6.508652 -5.77589,-13.275927 -15.43111,-13.275927 h -8.40521 -0.90518 v 51.853702 h 7.58625 c 13.57765,0 18.40526,-7.931073 18.40526,-15.344903 0,-5.732786 -2.62932,-9.870736 -7.62935,-12.50006 M 50.184798,116.95668 c 3.663811,-0.0431 6.853481,-0.77587 10.215568,-3.70691 l 0.34483,-0.34483 v -10.47419 l -1.250008,1.07759 c -3.663811,2.97415 -5.77589,3.40519 -8.275903,3.36208 -5.948305,-0.0862 -8.965561,-7.370721 -8.965561,-24.870806 0,-17.543189 2.801738,-24.698396 8.534525,-24.870811 3.146567,-0.08621 5.30175,0.862074 7.456933,2.456909 1.034488,0.775866 1.76725,1.637939 1.76725,1.637939 V 50.706358 l -0.47414,-0.387933 c -3.06036,-2.284494 -6.336238,-3.232774 -9.18108,-3.275878 -2.543116,-0.0431 -4.870713,0.646555 -6.939689,1.896561 -7.155207,4.35347 -11.250055,16.034561 -11.250055,33.491542 0.0431,21.93976 6.681067,34.74155 18.01733,34.52603 M 83.245306,82.042717 c -1.336214,0 -4.35347,0 -5.689683,0 0.301725,-1.551732 1.896561,-10.344877 2.844841,-15.474212 0.948281,5.129335 2.58622,13.92248 2.844842,15.474212 M 84.840141,48.766693 H 84.107379 76.046995 L 65.227976,100.92212 h 8.706939 c 0,0 1.896561,-9.784531 2.155183,-11.07764 1.163799,0 7.500037,0 8.706939,0 0.215519,1.293109 1.982769,11.07764 1.982769,11.07764 h 8.750043 L 84.840141,48.766693 M 286.60837,80.059949 c 0.47414,0 0.77587,-0.258622 0.77587,-0.603451 0,-0.387933 -0.30173,-0.603452 -0.94828,-0.603452 h -0.81897 v 1.250007 c -0.0431,-0.0431 0.99138,-0.0431 0.99138,-0.0431 z m -1.93966,-1.939665 h 2.15518 c 1.07759,0 1.50863,0.603451 1.50863,1.29311 0,0.689659 -0.47414,1.163799 -1.20691,1.250006 v 0.0431 c 0.38794,0.129311 0.56035,0.387933 0.86208,0.905177 l 0.64655,1.077591 h -1.1638 l -0.38793,-0.732762 c -0.43104,-0.905177 -0.73276,-1.120695 -1.25001,-1.120695 h -0.21551 v 1.853457 h -0.90518 c -0.0431,0 -0.0431,-4.568988 -0.0431,-4.568988 z m 1.89656,5.732787 c 1.89656,0 3.44829,-1.551732 3.44829,-3.448293 0,-1.939665 -1.55173,-3.491395 -3.44829,-3.448291 -1.89656,0 -3.40519,1.55173 -3.40519,3.448291 0,1.896561 1.50863,3.448293 3.40519,3.448293 z m 0,-7.801761 c 2.3707,0 4.26726,1.939663 4.26726,4.310365 0,2.370701 -1.89656,4.310365 -4.26726,4.310365 -2.3707,0 -4.26727,-1.939664 -4.26727,-4.310365 0.0431,-2.370702 1.93967,-4.310365 4.26727,-4.310365 z m -43.27608,6.077615 c -1.37931,0 -4.35347,0 -5.73278,0 0.25862,-1.551732 1.89656,-10.344877 2.84484,-15.517317 0.94828,5.129336 2.58622,13.965585 2.88794,15.517317 m 1.59484,-33.362232 h -0.77587 -8.10349 l -10.81901,52.284737 h 8.75004 l 2.15518,-11.120743 c 1.2069,0 7.54314,0 8.75004,0 0.25863,1.29311 1.98277,11.120743 1.98277,11.120743 h 8.75005 L 244.88403,48.766693 m 25.38805,38.362256 v 28.750141 h -9.65522 V 47.90462 h 9.65522 V 74.7582 l 7.24142,-26.85358 h 10.00005 c -1.03449,3.275878 -9.48281,31.638085 -9.74143,32.457055 l -0.0431,0.08621 0.0431,0.08621 c 0.25862,0.775866 11.03454,31.896705 12.28454,35.388105 h -10.08625 l -9.69833,-28.793245"
   id="path1"
   style="stroke-width:0.431037" />
</svg>
