<?xml version="1.0" encoding="UTF-8" standalone="no"?>
<svg
   id="Layer_1"
   viewBox="0 0 323 164"
   version="1.1"
   sodipodi:docname="factor.svg"
   width="323"
   height="164"
   inkscape:version="1.4 (86a8ad7, 2024-10-11)"
   xmlns:inkscape="http://www.inkscape.org/namespaces/inkscape"
   xmlns:sodipodi="http://sodipodi.sourceforge.net/DTD/sodipodi-0.dtd"
   xmlns="http://www.w3.org/2000/svg"
   xmlns:svg="http://www.w3.org/2000/svg">
  <defs
     id="defs5" />
  <sodipodi:namedview
     id="namedview5"
     pagecolor="#ffffff"
     bordercolor="#000000"
     borderopacity="0.25"
     inkscape:showpageshadow="2"
     inkscape:pageopacity="0.0"
     inkscape:pagecheckerboard="0"
     inkscape:deskcolor="#d1d1d1"
     inkscape:zoom="1.125"
     inkscape:cx="238.22222"
     inkscape:cy="138.22222"
     inkscape:window-width="1366"
     inkscape:window-height="745"
     inkscape:window-x="-8"
     inkscape:window-y="-8"
     inkscape:window-maximized="1"
     inkscape:current-layer="Layer_1" />
  <g
     id="g5"
     transform="matrix(0.23887812,0,0,0.23887812,100.3472,20.847201)"
     style="fill:#ff675a;fill-opacity:1">
    <path
       d="m 443.03,375.1 c 17.82,0 30.82,-11.88 38.65,-35.34 2.89,-8.46 3.45,-15.14 1.49,-17.89 -0.98,-1.37 -1.37,-4.57 -15.36,-4.57 h -44.06 l -65.39,194.69 h 82.68 l -30.57,-136.9 h 32.56 z"
       style="fill:#ff675a;fill-opacity:1"
       id="path1" />
    <path
       d="M 469.57,413.26 491.72,512 H 512 V 382.27 c -11.23,13.72 -25.73,24.44 -42.43,30.99 z"
       style="fill:#ff675a;fill-opacity:1"
       id="path2" />
    <path
       d="m 261.29,319.82 c -2.18,-3.03 -6.67,-4.49 -13.77,-4.49 -34.68,0 -51.58,50.27 -61.7,80.29 l -1.01,2.99 c -4.95,14.81 -20.03,59.95 -11.42,71.92 1.87,2.55 6.19,3.91 12.48,3.91 34.75,0 50.87,-47.5 62.64,-82.19 l 1.22,-3.67 c 8.24,-24.34 19.5,-57.67 11.55,-68.75 z"
       style="fill:#ff675a;fill-opacity:1"
       id="path3" />
    <polygon
       points="0,317.31 0,364.95 15.76,317.31 "
       style="fill:#ff675a;fill-opacity:1"
       id="polygon3" />
    <polygon
       points="0,0 0,144.75 48.66,0 "
       style="fill:#ff675a;fill-opacity:1"
       id="polygon4" />
    <path
       d="m 442.18,244.12 c -23,0 -39.98,-7.43 -50.51,-22.08 C 376.1,200.4 376.49,164.78 392.84,116.09 405.65,77.63 433.93,16.96 487.74,0 H 330.51 l -1.4,240.92 h -50.34 l 5.39,-121.85 -80.75,121.85 H 147.79 L 310.89,0 H 198.3 L 183.91,42.21 H 85.2 L 69.02,90.16 h 101.5 l -14.06,43.81 H 54.57 L 18.39,241.17 H 0 v 32.31 H 133.48 L 118.56,317.3 H 66.59 L 2.56,512 h 144.03 c -6.27,-3.38 -11.56,-7.88 -15.7,-13.62 -21.36,-29.69 -4.5,-80.37 3.6,-104.72 l 0.97,-2.85 c 9.91,-29.73 39.98,-120.28 119.2,-120.28 21.99,0 38.19,7.04 48.13,20.91 21.68,30.28 3.58,83.44 -4.12,106.12 l -0.86,2.52 C 289.6,424.49 267.46,490.15 215.43,512 h 92.17 l 80.16,-238.52 h 95.13 c 10.68,0 20.72,2.79 29.11,7.73 V 212.8 c -18.02,19.15 -42.35,31.33 -69.82,31.33 z"
       style="fill:#ff675a;fill-opacity:1"
       id="path4" />
    <path
       d="m 442.19,123.84 c -14.99,45.39 -12.14,63.23 -7.11,70.2 1.18,1.59 3.9,5.3 13.88,5.3 13.08,0 25.29,-9.29 31.59,-19.16 h 31.44 V 40.34 c -0.49,-0.03 -0.92,-0.1 -1.45,-0.1 -26.52,0 -49.52,28.14 -68.36,83.6 z"
       style="fill:#ff675a;fill-opacity:1"
       id="path5" />
  </g>
</svg>
