<?xml version="1.0" encoding="UTF-8" standalone="no"?>
<!-- Generator: Adobe Illustrator 19.2.1, SVG Export Plug-In . SVG Version: 6.00 Build 0)  -->

<svg
   version="1.1"
   id="layer"
   x="0px"
   y="0px"
   viewBox="0 0 323 164"
   xml:space="preserve"
   sodipodi:docname="lapierre.svg"
   width="323"
   height="164"
   inkscape:version="1.4 (86a8ad7, 2024-10-11)"
   xmlns:inkscape="http://www.inkscape.org/namespaces/inkscape"
   xmlns:sodipodi="http://sodipodi.sourceforge.net/DTD/sodipodi-0.dtd"
   xmlns="http://www.w3.org/2000/svg"
   xmlns:svg="http://www.w3.org/2000/svg"><defs
   id="defs1" /><sodipodi:namedview
   id="namedview1"
   pagecolor="#ffffff"
   bordercolor="#000000"
   borderopacity="0.25"
   inkscape:showpageshadow="2"
   inkscape:pageopacity="0.0"
   inkscape:pagecheckerboard="0"
   inkscape:deskcolor="#d1d1d1"
   showguides="true"
   inkscape:zoom="1.717879"
   inkscape:cx="153.38682"
   inkscape:cy="73.055201"
   inkscape:window-width="1366"
   inkscape:window-height="745"
   inkscape:window-x="-8"
   inkscape:window-y="-8"
   inkscape:window-maximized="1"
   inkscape:current-layer="layer"><sodipodi:guide
     position="161.5,82"
     orientation="0,-1"
     id="guide1"
     inkscape:locked="false" /><sodipodi:guide
     position="161.5,82"
     orientation="1,0"
     id="guide2"
     inkscape:locked="false" /></sodipodi:namedview>
<g
   id="g1"
   transform="matrix(0.5110588,0,0,0.5110588,-6.6012673,-89.824704)">
	<path
   d="M 100.84822,351.01318 H 52.748219 l 24.9,-39.7 h -22.7 l -24.1,38.4 c -1.8,3.1 -2.3,5.8 -1.7,7.7 0.7,2 2.9,3.3 6.1,3.6 h 59.2 m 77.400001,-39.2 -12.2,19.3 h -25.4 l 12.1,-19.2 z m -2,39.3 31.4,-49.7 h -54.7 c -8.8,0 -17.9,4.2 -21.7,10 -4.3,6.6 -20.8,33.1 -24.900001,39.7 h 21.800001 l 5.9,-9.4 25.4,0.1 -5.9,9.3 z m 79.7,-39.3 -11.8,18.2 h -24.1 l 11.4,-18.2 z m 23.4,-1.3 c 3,-4.8 0.4,-9.1 -7.2,-9.1 h -57 l -31,49.7 h 22.8 l 6.2,-9.9 h 37.5 c 6.6,0 10.6,-1.8 13.3,-6.2 0,0 12.4,-19.7 15.4,-24.5 m 4,40.6 31.2,-49.7 h -22.7 l -26.4,42 c -1.4,2.6 -1.9,4.6 -1.5,5.7 0.4,1.2 1.9,1.8 4.4,2 z m 107.7,-39.3 6.5,-10.4 h -74.7 c 0,0 -17.8,28.3 -25,39.7 -0.1,0.1 -0.1,0.2 -0.2,0.3 -2.2,3.6 -3.1,6.2 -2.6,7.6 0.4,1.2 1.9,1.9 4.4,2.1 l 66.8,-0.1 6.9,-11.1 h -52 l 5.6,-8.5 h 50.3 l 6.7,-10.8 h -50.4 l 5.7,-8.8 z m 68.9,14 c 1.9,-3 15.5,-24.4 15.5,-24.4 h -70.8 l -6.7,10.7 h 48.3 l -5.4,8.5 h -48.3 l -19.2,30.5 h 22.4 l 11.9,-19 h 12.4 l 4.8,19 h 23 l -4.8,-19 h 3.3 c 7.5,-0.1 10.6,-1.5 13.6,-6.3 m 78.4,0 c 1.9,-3 15.5,-24.4 15.5,-24.4 h -70.8 l -6.7,10.7 h 48.3 l -5.4,8.5 h -48.3 l -19.2,30.5 h 22.4 l 11.9,-19 h 12.6 l 4.8,19 h 23 l -4.8,-19 h 3.2 c 7.4,-0.1 10.5,-1.5 13.5,-6.3 m 90.5,-14 6.5,-10.4 h -74.7 c 0,0 -17.8,28.3 -25,39.7 0,0.1 -0.1,0.2 -0.2,0.3 -2.2,3.6 -3.1,6.2 -2.6,7.6 0.4,1.2 1.9,1.9 4.4,2.1 l 66.8,-0.1 6.9,-11.1 h -52 l 5.6,-8.5 h 50.3 l 6.7,-10.8 h -50.4 l 5.7,-8.8 z"
   id="path1" />
</g>
</svg>
