<?xml version="1.0" encoding="UTF-8" standalone="no"?>
<!-- Created with Inkscape (http://www.inkscape.org/) -->

<svg
   width="323mm"
   height="164mm"
   viewBox="0 0 323 164.00001"
   version="1.1"
   id="svg1"
   xml:space="preserve"
   sodipodi:docname="leatt.svg"
   inkscape:version="1.4 (86a8ad7, 2024-10-11)"
   xmlns:inkscape="http://www.inkscape.org/namespaces/inkscape"
   xmlns:sodipodi="http://sodipodi.sourceforge.net/DTD/sodipodi-0.dtd"
   xmlns="http://www.w3.org/2000/svg"
   xmlns:svg="http://www.w3.org/2000/svg"><sodipodi:namedview
     id="namedview1"
     pagecolor="#ffffff"
     bordercolor="#000000"
     borderopacity="0.25"
     inkscape:showpageshadow="2"
     inkscape:pageopacity="0.0"
     inkscape:pagecheckerboard="0"
     inkscape:deskcolor="#d1d1d1"
     inkscape:document-units="mm"
     inkscape:zoom="0.31379912"
     inkscape:cx="623.01004"
     inkscape:cy="444.55192"
     inkscape:window-width="1366"
     inkscape:window-height="745"
     inkscape:window-x="-8"
     inkscape:window-y="-8"
     inkscape:window-maximized="1"
     inkscape:current-layer="layer1"><inkscape:page
       x="0"
       y="0"
       width="323"
       height="164"
       id="page2"
       margin="0"
       bleed="0" /></sodipodi:namedview><defs
     id="defs1" /><g
     inkscape:label="Layer 1"
     inkscape:groupmode="layer"
     id="layer1"
     transform="translate(-2.6113224,-11.407704)"><path
       style="fill:#000000;stroke-width:27.21"
       d="m 24.750748,158.81353 c -2.458693,-0.6525 -4.398737,-1.74825 -6.026764,-3.40373 -2.1085,-2.14387 -2.78796,-3.90912 -2.765321,-7.18326 0.0197,-2.84584 -0.05441,-2.58223 10.019417,-35.50901 1.900072,-6.21068 3.626192,-11.85901 3.835573,-12.55182 l 0.380667,-1.259822 7.899979,-1.973004 c 4.344998,-1.085126 7.960359,-1.912583 8.034152,-1.838841 0.130608,0.130606 -3.972356,14.026087 -9.861002,33.404987 -2.850189,9.37973 -3.198505,11.08483 -2.49461,12.21195 0.471005,0.75398 1.845924,1.39315 2.99805,1.39315 0.814665,0 16.242964,-3.68344 16.498437,-3.93894 0.13333,-0.13333 1.941976,-7.25249 1.95014,-7.6724 0.0041,-0.2068 -1.777084,0.14422 -5.085762,1.00759 -2.800668,0.72977 -5.126767,1.29193 -5.169105,1.24976 -0.04353,-0.0435 0.09796,-0.61823 0.312099,-1.27969 0.562974,-1.73981 3.963104,-14.21261 3.962914,-14.53785 -8.1e-5,-0.14966 2.448081,-0.88134 5.440034,-1.62308 5.375276,-1.33247 5.443302,-1.35832 5.702966,-2.17435 0.282982,-0.88922 3.636122,-12.31596 5.63113,-19.189418 0.67263,-2.317747 1.248121,-4.239207 1.278597,-4.269626 0.149655,-0.149649 45.995241,-11.524808 46.177251,-11.457438 0.21224,0.07887 -4.80009,15.676013 -5.16157,16.066561 -0.10612,0.114288 -6.61238,1.737089 -14.460329,3.607634 -7.847954,1.870682 -14.437746,3.495667 -14.643943,3.611417 -0.382844,0.21496 -2.621136,7.89954 -2.373253,8.14756 0.07619,0.0762 8.151018,-1.8628 17.946526,-4.30665 l 17.809979,-4.44318 0.3189,-1.099003 c 0.49496,-1.705522 4.82344,-15.933694 6.01689,-19.777757 0.61033,-1.965653 1.23888,-3.506657 1.46554,-3.593732 0.42882,-0.163256 29.97251,-7.522336 30.20437,-7.522336 0.0763,0 0.13876,5.020239 0.13876,11.156088 0,7.391371 0.0925,11.156089 0.27701,11.156089 0.15238,0 2.5444,-0.567327 5.31516,-1.260633 2.77091,-0.693317 5.08357,-1.213841 5.13923,-1.156429 0.0544,0.05709 -0.90391,3.774726 -2.13244,8.260972 l -2.23367,8.156821 -3.00591,0.78637 -3.00588,0.78636 -0.17415,4.66192 c -0.0953,2.56399 -0.25577,7.73434 -0.35427,11.48953 l -0.18231,6.82763 -7.99404,1.98444 c -4.39673,1.09138 -8.07157,1.90688 -8.16632,1.81218 -0.0953,-0.0953 -0.0353,-5.15812 0.13061,-11.25195 0.16598,-6.09384 0.26666,-11.11576 0.22313,-11.15987 -0.14693,-0.14694 -10.00329,2.30904 -10.23153,2.54822 -0.12244,0.12788 -1.8217,5.61134 -3.77478,12.18265 -1.95313,6.57135 -3.64766,12.03367 -3.76588,12.13851 -0.11701,0.10612 -3.52101,1.0084 -7.56169,2.00782 -4.04068,0.99942 -7.55006,1.87859 -7.79865,1.95341 -0.39645,0.11972 -0.36624,-0.17415 0.24489,-2.39148 2.34251,-8.50385 6.00902,-22.12218 5.9672,-22.16399 -0.0272,-0.0272 -2.43611,0.5393 -5.35342,1.259 -2.917156,0.71969 -10.936396,2.68291 -17.82052,4.3631 -6.884121,1.67993 -12.615139,3.1457 -12.735599,3.25704 -0.234005,0.21769 -2.413796,7.67096 -2.281283,7.80351 0.04353,0.0435 2.399374,-0.51917 5.235144,-1.25057 13.116212,-3.38288 24.719115,-6.25416 24.829042,-6.14424 0.06531,0.0653 -1.149076,3.94714 -2.701404,8.62366 l -2.822382,8.50282 -14.421284,3.60627 c -7.931707,1.98361 -14.610285,3.61139 -14.841271,3.61765 -0.231285,0.007 -1.932996,-1.73354 -3.782322,-3.86607 -1.849189,-2.13246 -3.435721,-3.90681 -3.52546,-3.94273 -0.08978,-0.0353 -0.894663,2.31285 -1.789055,5.21942 l -1.625796,5.28469 -5.58471,1.40403 c -15.983544,4.01839 -16.259018,4.07625 -19.320112,4.05709 -1.584165,-0.01 -3.531174,-0.19592 -4.359255,-0.41522 z M 134.82286,91.113842 c -0.23672,-5.499924 -0.27918,-5.698468 -1.19099,-5.475129 -0.39699,0.098 -0.85928,0.321622 -1.02744,0.499032 -0.31508,0.331958 -3.09538,9.380609 -3.09538,10.074189 0,0.316449 0.50719,0.261214 2.74499,-0.299856 l 2.74503,-0.688407 z m 76.85538,43.633768 c -3.04975,-0.72459 -5.8454,-2.90294 -7.22743,-5.63184 -0.7227,-1.42716 -0.79372,-1.81436 -0.78691,-4.28981 0.007,-2.42115 0.16597,-3.30549 1.44676,-8.02694 1.76864,-6.52105 3.95836,-14.34337 7.16008,-25.577368 4.27455,-14.9983 4.83618,-16.942808 4.91417,-17.013742 0.0408,-0.03806 3.44353,-0.83507 7.55904,-1.771094 4.1155,-0.936024 7.57034,-1.777624 7.67738,-1.870419 0.10611,-0.09253 -0.75018,-1.177375 -1.9047,-2.409985 l -2.09925,-2.241283 -7.75484,1.941974 c -4.26517,1.067998 -7.89625,2.078573 -8.06909,2.245373 -0.17414,0.165979 -1.01058,2.568614 -1.86143,5.337308 -0.85086,2.768621 -2.6908,8.707198 -4.08836,13.196839 -1.39751,4.489643 -3.90371,12.571007 -5.56911,17.958577 -1.66552,5.38758 -3.14325,10.16461 -3.28411,10.61564 l -0.25578,0.82012 -7.92807,1.97734 c -4.36044,1.08759 -7.96765,1.93761 -8.01599,1.88918 -0.049,-0.049 0.26122,-1.24594 0.69059,-2.66113 0.42828,-1.41519 1.6394,-5.512 2.69161,-9.10371 1.05221,-3.59172 2.84769,-9.71396 3.99001,-13.604993 1.14228,-3.891023 3.00148,-10.258149 4.13143,-14.149183 1.13003,-3.891023 2.15421,-7.411308 2.27585,-7.822866 0.12244,-0.411409 0.13876,-0.750182 0.0353,-0.752358 -0.10063,-0.0021 -2.08974,0.500672 -4.41733,1.117514 l -4.23222,1.121603 -0.75071,2.487806 c -0.61986,2.053811 -7.35451,24.188597 -12.59569,41.398057 -0.68379,2.24482 -1.34227,4.18844 -1.46335,4.31912 -0.26394,0.28461 -15.27807,4.02021 -15.45347,3.84482 -0.0681,-0.0681 0.19591,-1.25819 0.58337,-2.64644 0.38802,-1.38853 1.51316,-5.40183 2.50033,-8.91871 0.98718,-3.51689 3.00722,-10.74114 4.48905,-16.05388 1.48186,-5.312749 3.35499,-11.985998 4.16262,-14.829444 1.01846,-3.585478 1.36784,-5.194545 1.14062,-5.250327 -0.29685,-0.0735 -4.73956,1.019565 -11.52298,2.833676 -1.40021,0.374407 -2.59174,0.635085 -2.6478,0.579029 -0.0571,-0.05709 0.20136,-1.195881 0.57087,-2.533252 0.37005,-1.337361 1.3858,-5.184064 2.25734,-8.548306 l 1.58443,-6.116827 31.81797,-7.915629 31.81796,-7.915649 1.15289,-3.381929 c 3.69253,-10.831363 4.88982,-13.462105 7.14292,-15.694302 2.93636,-2.909181 6.39586,-4.296536 10.21405,-4.096135 3.73226,0.195912 4.66681,0.822286 10.88698,7.296436 2.76012,2.872856 4.52304,4.728004 10.60515,11.160058 9.95321,10.525935 17.40005,18.630801 17.34573,18.878388 -0.15511,0.704463 -4.69123,15.212281 -4.78673,15.307788 -0.0571,0.05709 -0.57277,-0.418223 -1.14391,-1.058197 -0.93548,-1.048398 -6.75362,-7.259051 -9.51378,-10.155797 -0.59861,-0.628281 -1.88428,-1.986326 -2.85705,-3.01832 -0.97275,-1.031806 -4.21688,-4.445268 -7.2092,-7.585405 -2.9923,-3.140168 -6.29831,-6.613735 -7.34669,-7.719093 -2.56426,-2.703574 -3.78411,-3.570567 -5.00807,-3.559253 -1.95858,0.01809 -2.84292,1.499271 -4.86952,8.15393 -2.73063,8.966697 -10.92916,37.035489 -15.83321,54.20729 -1.84375,6.45622 -1.86797,6.88788 -0.44217,7.95092 1.39097,1.03725 3.36482,0.76351 14.29232,-1.98305 5.44979,-1.36977 9.9347,-2.45979 9.96646,-2.42224 0.0327,0.038 -0.34421,1.53764 -0.83562,3.33344 -0.4914,1.79586 -1.40648,5.23626 -2.03395,7.64534 -0.62718,2.40918 -1.23533,4.53332 -1.35096,4.72055 -0.11702,0.18775 -5.56126,1.67532 -12.10118,3.30666 -11.02196,2.74954 -12.07331,2.96428 -14.38866,2.93892 -1.37383,-0.015 -2.92866,-0.1306 -3.4552,-0.25576 z m 45.56373,-9.90992 c -0.13879,-0.16055 -1.29493,-1.45219 -2.56699,-2.8692 -1.27208,-1.41711 -2.69407,-3.0068 -3.16001,-3.53281 -0.46584,-0.52598 -1.7711,-1.99723 -2.90066,-3.26925 -1.12949,-1.27207 -2.03395,-2.33245 -2.01001,-2.35639 0.024,-0.024 9.47187,-2.38387 20.99529,-5.24447 11.52343,-2.86048 21.47219,-5.39828 22.10838,-5.63951 1.57084,-0.59563 2.51692,-1.52104 2.51529,-2.460333 -0.003,-1.432059 -1.08323,-2.755635 -10.06137,-12.325493 -4.73835,-5.050544 -5.81614,-6.25489 -5.69078,-6.358778 0.098,-0.0816 15.6195,-3.98101 15.84772,-3.98101 0.19862,0 16.05135,16.740993 17.4329,18.410955 1.86906,2.259241 2.893,6.152339 2.38169,9.055499 -0.42039,2.38713 -1.29002,3.98956 -3.18258,5.86577 -2.88519,2.85999 -2.86206,2.85246 -28.44437,9.24659 -16.0568,4.01328 -23.08724,5.6628 -23.26454,5.45851 z"
       id="path1" /></g></svg>
