<?xml version="1.0" encoding="UTF-8" standalone="no"?>
<svg
   width="323pt"
   height="164pt"
   viewBox="0 0 323 163.99999"
   version="1.1"
   id="svg25"
   sodipodi:docname="transition.svg"
   inkscape:version="1.4 (86a8ad7, 2024-10-11)"
   xmlns:inkscape="http://www.inkscape.org/namespaces/inkscape"
   xmlns:sodipodi="http://sodipodi.sourceforge.net/DTD/sodipodi-0.dtd"
   xmlns="http://www.w3.org/2000/svg"
   xmlns:svg="http://www.w3.org/2000/svg">
  <defs
     id="defs25" />
  <sodipodi:namedview
     id="namedview25"
     pagecolor="#ffffff"
     bordercolor="#000000"
     borderopacity="0.25"
     inkscape:showpageshadow="2"
     inkscape:pageopacity="0.0"
     inkscape:pagecheckerboard="0"
     inkscape:deskcolor="#d1d1d1"
     inkscape:document-units="pt"
     inkscape:zoom="1.0507323"
     inkscape:cx="253.63263"
     inkscape:cy="113.73021"
     inkscape:window-width="1366"
     inkscape:window-height="745"
     inkscape:window-x="-8"
     inkscape:window-y="-8"
     inkscape:window-maximized="1"
     inkscape:current-layer="svg25" />
  <g
     id="surface1"
     transform="matrix(1.0650948,0,0,1.0650948,6.0127676,-73.379124)"
     style="fill:#000000">
    <path
       style="fill:#000000;fill-opacity:1;fill-rule:nonzero;stroke:none"
       d="m 57.800781,141.37109 c 0.269532,-0.15234 1.164063,-0.22656 2.683594,-0.23047 l 9.863281,-0.0117 2.355469,-6.49219 -6.914062,0.0469 c -1.976563,0 -5.601563,0.75 -6.425782,1.59375 l 0.558594,-1.625 -8.40625,0.0117 2.164063,-5.96875 -27.230469,0.0312 c -3.574219,0.90235 -5.691406,4.5625 -6.566406,6.46485 l 11.921875,0.0156 -7.003907,19.32422 9.839844,-0.008 7.007813,-19.32813 8.246093,-0.008 -7.007812,19.32422 9.839844,-0.0156 4.378906,-12.07031 c 0.199219,-0.54687 0.429687,-0.90234 0.695312,-1.05469"
       id="path1" />
    <path
       style="fill:#000000;fill-opacity:1;fill-rule:nonzero;stroke:none"
       d="m 101.28125,136.56641 c -0.48828,-0.88282 -1.621094,-1.46094 -3.394531,-1.73047 -1.074219,-0.14844 -2.582031,-0.22657 -4.523438,-0.22266 l -19.464843,0.0234 -2.21875,6.11719 16.546875,-0.0195 c 1.003906,0 1.648437,0.0586 1.929687,0.17579 0.5625,0.24218 0.683594,0.7539 0.367188,1.53515 l -10.804688,0.0156 c -2.59375,0.004 -4.140625,0.0195 -4.636719,0.0508 -1.949218,0.0937 -3.40625,0.4414 -4.371093,1.04687 -1.074219,0.72657 -1.945313,2.01172 -2.613282,3.85547 l -0.34375,0.95313 c -0.683593,1.88672 -0.78125,3.26953 -0.292968,4.15234 0.492187,0.88281 1.613281,1.45703 3.363281,1.73047 1.082031,0.14844 2.597656,0.22266 4.542969,0.22266 l 20.640625,-0.0273 4.980467,-13.73047 c 0.6836,-1.88672 0.78125,-3.26953 0.29297,-4.14843 m -12.894531,11.77343 -10.183594,0.0117 c -0.617187,0 -0.824219,-0.28125 -0.617187,-0.84765 0.226562,-0.625 0.648437,-0.94141 1.265625,-0.94141 l 10.183593,-0.0117"
       id="path2" />
    <path
       style="fill:#000000;fill-opacity:1;fill-rule:nonzero;stroke:none"
       d="m 133.78516,136.64062 c -0.42188,-0.89843 -1.44532,-1.49609 -3.08204,-1.79687 -1.09765,-0.18359 -2.73046,-0.27344 -4.89062,-0.26953 l -5.57422,0.043 c -1.92187,0 -5.93359,0.91015 -6.82422,1.75 l 0.73047,-1.78125 -9.83984,0.0156 -7.199221,19.84375 9.843751,-0.0117 4.375,-12.07422 c 0.16797,-0.45703 0.36719,-0.78515 0.60156,-0.98437 0.23047,-0.19922 1.15235,-0.29688 2.76953,-0.30078 l 5.90625,-0.008 c 1.61328,-0.004 2.45703,0.0977 2.53125,0.29687 0.0703,0.19531 0.0234,0.52734 -0.14062,0.98438 l -4.37891,12.07031 9.83984,-0.0117 4.98047,-13.73047 c 0.65235,-1.79297 0.76563,-3.14062 0.35157,-4.03516"
       id="path3" />
    <path
       style="fill:#000000;fill-opacity:1;fill-rule:nonzero;stroke:none"
       d="m 163.62109,147.33203 c 1.14844,-3.16797 -1.07422,-4.75 -6.67187,-4.74219 l -11.76563,0.0117 c -0.84375,0.004 -1.17187,-0.25781 -0.98437,-0.77734 0.1914,-0.52344 0.70703,-0.78516 1.55469,-0.78906 l 17.44531,-0.0195 2.35547,-6.48828 -18.67969,0.0195 c -1.94531,0.004 -3.51563,0.082 -4.70703,0.23438 -1.96875,0.24609 -3.52344,0.82031 -4.66016,1.71484 -1.13672,0.89844 -2.04297,2.29297 -2.72656,4.17969 l -0.64453,1.77734 c -0.96094,2.64844 1.69922,3.96485 7.98437,3.95704 l 11.1211,-0.0117 c 0.74609,0 1.02343,0.26172 0.83203,0.78906 -0.16797,0.46875 -0.62891,0.70312 -1.3711,0.70312 l -20.55078,0.0234 -2.35156,6.49219 21.39453,-0.0273 c 1.98047,0 3.54688,-0.0781 4.70703,-0.23438 2,-0.24609 3.5586,-0.81641 4.67969,-1.71875 1.12109,-0.89844 2.02344,-2.29297 2.70703,-4.18359"
       id="path4" />
    <path
       style="fill:#000000;fill-opacity:1;fill-rule:nonzero;stroke:none"
       d="m 178.83203,136.32031 -9.83984,0.008 -6.54297,18.03907 9.84375,-0.0117 z m 0,0"
       id="path5" />
    <path
       style="fill:#000000;fill-opacity:1;fill-rule:nonzero;stroke:none"
       d="m 181.625,128.61328 -9.83984,0.0156 -2.14063,5.89062 9.84375,-0.0117 z m 0,0"
       id="path6" />
    <path
       style="fill:#000000;fill-opacity:1;fill-rule:nonzero;stroke:none"
       d="m 192.85547,147.83984 -4.27735,0.008 c -0.91406,0.004 -1.39453,0.004 -1.46093,0.004 -0.57032,-0.0352 -0.92578,-0.11719 -1.05078,-0.2539 -0.12891,-0.13672 -0.0937,-0.48438 0.10546,-1.03516 l 2.03907,-5.57813 4.83984,-0.004 2.35156,-6.49219 c -1.90625,0.004 -3.52734,0.004 -4.85156,0.008 l 2.15234,-5.89453 -9.84375,0.0117 -7.10546,19.60156 c -0.66407,1.83203 -0.78125,3.19922 -0.34375,4.09766 0.43359,0.90234 1.53125,1.48828 3.28125,1.75781 1.07031,0.1836 2.6289,0.27344 4.67578,0.26953 l 7.13672,-0.008"
       id="path7" />
    <path
       style="fill:#000000;fill-opacity:1;fill-rule:nonzero;stroke:none"
       d="m 210.63281,128.57812 -9.84375,0.0117 -2.13672,5.89453 9.83985,-0.0117 z m 0,0"
       id="path8" />
    <path
       style="fill:#000000;fill-opacity:1;fill-rule:nonzero;stroke:none"
       d="m 197.99609,136.29687 -6.53906,18.03516 9.83984,-0.0117 6.53907,-18.03515 z m 0,0"
       id="path9" />
    <path
       style="fill:#000000;fill-opacity:1;fill-rule:nonzero;stroke:none"
       d="m 238.85937,140.54687 c 0.69141,-1.91406 0.77735,-3.3164 0.25391,-4.19531 -0.52344,-0.8789 -1.71484,-1.4414 -3.57422,-1.68359 -1.04687,-0.14844 -2.49609,-0.22656 -4.34765,-0.22266 l -11.58204,0.0156 c -1.98046,0 -3.55078,0.0781 -4.70703,0.23437 -1.98047,0.27344 -3.54297,0.86328 -4.67968,1.75781 -1.13282,0.90235 -2.03907,2.27735 -2.71094,4.13282 l -2.76563,7.61718 c -0.67187,1.85547 -0.76562,3.23438 -0.28125,4.125 0.48828,0.89844 1.625,1.48438 3.40625,1.75391 1.04688,0.15234 2.5625,0.22656 4.54297,0.22266 l 11.58203,-0.0156 c 2.01172,0 3.59766,-0.0781 4.75782,-0.23047 1.94921,-0.27734 3.48828,-0.86328 4.625,-1.76172 1.14062,-0.89843 2.04296,-2.27734 2.71484,-4.13281 z m -10.44531,1.67969 -1.55469,4.28516 c -0.16796,0.46094 -0.34375,0.76562 -0.52734,0.92187 -0.21875,0.2461 -1.15234,0.36719 -2.79687,0.3711 l -5.90625,0.008 h -1.5 c -0.53907,-0.0312 -0.87891,-0.11328 -1.02344,-0.25 -0.14063,-0.13672 -0.11328,-0.48438 0.0859,-1.03906 l 1.55468,-4.28125 c 0.19141,-0.52344 0.40625,-0.85938 0.65625,-1.01563 0.25,-0.15234 0.65625,-0.24609 1.21875,-0.27734 -0.0664,0 0.4336,0 1.5,-0.004 l 5.90235,-0.008 c 1.64843,0 2.49609,0.0977 2.55468,0.29687 0.0547,0.20313 0,0.53516 -0.16406,0.99219"
       id="path10" />
    <path
       style="fill:#000000;fill-opacity:1;fill-rule:nonzero;stroke:none"
       d="m 271.83984,136.47266 c -0.41797,-0.89844 -1.4414,-1.4961 -3.07812,-1.79688 -1.09766,-0.18359 -2.73047,-0.27344 -4.89453,-0.26953 l -4.75391,0.0391 c -1.91797,0.004 -6.72266,1.07422 -7.61328,1.91797 l 0.69922,-1.94141 -9.83985,0.0117 -7.19531,19.84375 9.84375,-0.0117 4.375,-12.07421 c 0.16797,-0.45704 0.36719,-0.78516 0.59766,-0.98438 0.23437,-0.19531 1.15625,-0.29687 2.77344,-0.30078 l 5.90234,-0.004 c 1.61719,-0.004 2.46094,0.0937 2.53125,0.29297 0.0742,0.19531 0.0273,0.52735 -0.14063,0.98438 l -4.375,12.07031 9.83985,-0.0117 4.98047,-13.73047 c 0.65234,-1.79297 0.76562,-3.14062 0.34765,-4.03515"
       id="path11" />
    <path
       style="fill:#000000;fill-opacity:1;fill-rule:nonzero;stroke:none"
       d="m 30.386719,160.52734 c 0.351562,-0.0508 0.621094,-0.15234 0.808594,-0.30468 0.183593,-0.14844 0.277343,-0.34375 0.277343,-0.57422 v -0.60938 c 0,-0.35547 -0.117187,-0.61328 -0.355468,-0.76953 -0.234375,-0.16016 -0.621094,-0.23828 -1.15625,-0.23828 l -5.710938,0.008 0.0078,5.14844 5.28125,-0.008 c 0.664062,-0.004 1.160156,-0.0859 1.488281,-0.25391 0.328125,-0.16797 0.492187,-0.42187 0.488281,-0.76172 v -0.66015 c 0,-0.26172 -0.09766,-0.48047 -0.296875,-0.65235 -0.199219,-0.16797 -0.476562,-0.27734 -0.832031,-0.32422 m -4.609375,-1.64453 3.46875,-0.004 c 0.277344,0 0.460937,0.0273 0.558594,0.082 0.09375,0.0547 0.144531,0.14843 0.144531,0.28125 v 0.48047 c 0,0.13671 -0.04687,0.23046 -0.148438,0.28515 -0.09766,0.0547 -0.28125,0.082 -0.550781,0.082 l -3.472656,0.004 z m 4.238281,2.91016 c 0,0.17187 -0.05469,0.28906 -0.160156,0.35547 -0.105469,0.0664 -0.304688,0.0977 -0.601563,0.0977 l -3.472656,0.008 -0.0039,-1.31641 3.472656,-0.004 c 0.296875,0 0.496094,0.0352 0.605469,0.10157 0.105469,0.0703 0.160156,0.1875 0.15625,0.35937"
       id="path12" />
    <path
       style="fill:#000000;fill-opacity:1;fill-rule:nonzero;stroke:none"
       d="m 41.980469,163.16406 h 1.546875 l -0.0039,-5.14844 -1.546875,0.004 z m 0,0"
       id="path13" />
    <path
       style="fill:#000000;fill-opacity:1;fill-rule:nonzero;stroke:none"
       d="M 59.675781,157.99609 55.691406,158 c -0.648437,0.004 -1.082031,0.0898 -1.308593,0.26172 -0.226563,0.17187 -0.339844,0.49609 -0.339844,0.96094 l 0.0039,2.69921 c 0,0.47657 0.113281,0.80079 0.34375,0.97266 0.230469,0.16797 0.664063,0.25391 1.304688,0.25391 l 3.988281,-0.008 c 0.652344,0 1.09375,-0.0859 1.324219,-0.25781 0.230468,-0.17187 0.34375,-0.49609 0.34375,-0.96875 v -0.59375 l -1.570313,-0.2539 0.0039,1.07812 -4.191406,0.008 -0.0039,-3.19531 4.191406,-0.008 v 0.95312 l 1.566406,-0.18359 v -0.50391 c 0,-0.46875 -0.113281,-0.78906 -0.34375,-0.96093 -0.226562,-0.17188 -0.667968,-0.25782 -1.328125,-0.25782"
       id="path14" />
    <path
       style="fill:#000000;fill-opacity:1;fill-rule:nonzero;stroke:none"
       d="m 74.484375,159.90234 -2.269531,-1.92187 -2.09375,0.004 3.476562,2.83204 0.0039,2.30859 h 1.546875 l -0.0039,-2.33594 3.46875,-2.8125 h -1.828125"
       id="path15" />
    <path
       style="fill:#000000;fill-opacity:1;fill-rule:nonzero;stroke:none"
       d="m 92.886719,157.95312 -3.984375,0.0117 c -0.644531,0 -1.082031,0.0859 -1.308594,0.25782 -0.226562,0.17187 -0.339844,0.49218 -0.339844,0.96093 l 0.0039,2.69922 c 0,0.47656 0.117187,0.80078 0.34375,0.97266 0.230468,0.16797 0.667968,0.2539 1.308593,0.2539 l 3.984375,-0.008 c 0.652344,0 1.09375,-0.0859 1.324219,-0.25781 0.230469,-0.17578 0.34375,-0.49609 0.34375,-0.97266 v -0.59375 l -1.566406,-0.25 v 1.07813 l -4.191406,0.008 -0.0039,-3.19922 4.191407,-0.004 v 0.95312 l 1.570312,-0.1875 -0.0039,-0.5 c 0,-0.47266 -0.113281,-0.78906 -0.34375,-0.96094 -0.226563,-0.17187 -0.667969,-0.26172 -1.328125,-0.26172"
       id="path16" />
    <path
       style="fill:#000000;fill-opacity:1;fill-rule:nonzero;stroke:none"
       d="m 106.49609,157.9375 -1.5664,0.004 0.008,5.14843 6.5625,-0.0117 -0.004,-0.94921 -4.99609,0.004"
       id="path17" />
    <path
       style="fill:#000000;fill-opacity:1;fill-rule:nonzero;stroke:none"
       d="m 122.63672,160.84375 3.07422,-0.004 -0.004,-0.89062 -3.07031,0.004 v -1.125 l 5.25,-0.004 v -0.91016 l -6.82031,0.008 0.008,5.14454 6.90234,-0.008 v -0.94922 l -5.33593,0.004"
       id="path18" />
    <path
       style="fill:#000000;fill-opacity:1;fill-rule:nonzero;stroke:none"
       d="m 157.19922,157.87891 -3.98438,0.004 c -0.64453,0 -1.08203,0.0898 -1.30859,0.26172 -0.22656,0.17188 -0.33984,0.49219 -0.33984,0.96094 l 0.004,2.69922 c 0,0.47656 0.11328,0.80078 0.34766,0.97265 0.22656,0.16797 0.66406,0.25391 1.30469,0.25391 l 3.98437,-0.008 c 0.65234,0 1.09375,-0.0859 1.32422,-0.25782 0.23047,-0.17578 0.34766,-0.49609 0.34375,-0.96875 v -0.59765 l -1.56641,-0.25 v 1.07812 l -4.1914,0.008 -0.004,-3.19922 4.19141,-0.004 v 0.95313 l 1.57031,-0.1875 -0.004,-0.5 c 0,-0.46875 -0.11328,-0.78907 -0.33984,-0.96094 -0.23047,-0.17188 -0.67188,-0.25781 -1.33203,-0.25781"
       id="path19" />
    <path
       style="fill:#000000;fill-opacity:1;fill-rule:nonzero;stroke:none"
       d="m 175.68359,157.85547 -4.9414,0.008 c -0.64844,0 -1.08594,0.0859 -1.3086,0.25781 -0.23047,0.17188 -0.33984,0.49219 -0.33984,0.96094 l 0.008,2.69922 c 0,0.47656 0.10938,0.80469 0.33594,0.97266 0.22266,0.17187 0.66406,0.2539 1.30859,0.2539 l 4.94141,-0.004 c 0.64844,0 1.08203,-0.0859 1.30859,-0.25782 0.22657,-0.17187 0.33985,-0.49609 0.33985,-0.97656 v -2.69922 c -0.004,-0.46484 -0.11328,-0.78515 -0.33594,-0.95703 -0.22266,-0.17187 -0.66406,-0.25781 -1.31641,-0.25781 m 0.10547,4.15234 -5.14453,0.004 -0.004,-3.19531 5.14844,-0.008"
       id="path20" />
    <path
       style="fill:#000000;fill-opacity:1;fill-rule:nonzero;stroke:none"
       d="m 192.19922,160.89062 -3.11328,-3.05078 h -1.2461 l 0.004,5.14844 1.25,-0.004 -0.004,-3.45703 2.87891,2.83985 0.30078,-0.004 2.83203,-2.92187 0.004,3.53906 1.4414,-0.004 -0.008,-5.14453 h -1.24609"
       id="path21" />
    <path
       style="fill:#000000;fill-opacity:1;fill-rule:nonzero;stroke:none"
       d="m 214.09375,158.04687 c -0.23438,-0.16015 -0.61328,-0.23828 -1.14063,-0.23828 l -5.73437,0.008 0.004,5.14843 1.52734,-0.004 -0.004,-1.99219 4.21485,-0.004 c 0.51953,0 0.89843,-0.0781 1.13281,-0.23437 0.23437,-0.16016 0.34766,-0.41406 0.35156,-0.76563 l -0.004,-1.15625 c 0,-0.35156 -0.11719,-0.60937 -0.34766,-0.76172 M 213,159.65234 c 0.004,0.15625 -0.0469,0.26563 -0.14844,0.32813 -0.10156,0.0625 -0.28515,0.0937 -0.55469,0.0977 l -3.55078,0.004 -0.004,-1.375 3.55078,-0.008 c 0.26953,0 0.45703,0.0352 0.55859,0.0977 0.0977,0.0625 0.14844,0.16797 0.14844,0.31641"
       id="path22" />
    <path
       style="fill:#000000;fill-opacity:1;fill-rule:nonzero;stroke:none"
       d="m 226.48437,157.79297 -3.76953,5.15234 1.55078,-0.004 0.79688,-1.14454 4.21094,-0.004 0.80468,1.14062 h 1.74219 l -3.84375,-5.14062 z m -0.76171,3.07031 1.42968,-2.14062 1.48828,2.14062"
       id="path23" />
    <path
       style="fill:#000000;fill-opacity:1;fill-rule:nonzero;stroke:none"
       d="m 247.72266,161.19141 -5.41407,-3.41797 -1.07031,0.004 0.008,5.14453 h 1.41797 l -0.004,-3.47265 5.39062,3.46484 h 1.07031 l -0.004,-5.14844 -1.39844,0.004"
       id="path24" />
    <path
       style="fill:#000000;fill-opacity:1;fill-rule:nonzero;stroke:none"
       d="m 263.09375,159.67187 -2.26953,-1.91796 h -2.09375 l 3.47656,2.83203 0.004,2.3125 1.54687,-0.004 -0.004,-2.33594 3.46875,-2.8125 h -1.82813"
       id="path25" />
  </g>
</svg>
